<svg preserveAspectRatio="none" width="100%" height="100%" overflow="visible" style="display: block;" viewBox="0 0 134.269 20.7285" fill="none" xmlns="http://www.w3.org/2000/svg">
<g id="HL logo_dark green 2" clip-path="url(#clip0_237_4104)">
<path id="Vector" d="M24.7453 9.01879C24.7453 17.1662 19.7432 19.7809 17.0905 17.4693C14.9305 15.5746 14.2863 11.5577 11.0274 11.1409C6.89684 10.6483 6.51789 16.143 3.78947 16.143C0.606316 16.143 0 11.5577 0 9.17037C0 6.74511 0.682105 3.44825 3.37263 3.44825C6.51789 3.44825 6.70737 8.18511 10.6484 7.91985C14.5516 7.65458 14.6274 2.72826 17.2042 0.644046C19.44 -1.2128 24.7453 0.757731 24.7453 9.01879Z" fill="var(--fill-0, #072723)"/>
<g id="Group 2147257306">
<path id="Vector_2" d="M30.7453 15.8783V0.0761719H32.2611V6.93514H41.5074V0.0761719H42.9853V15.9162H41.5074V8.22352H32.2611V15.9162H30.7453V15.8783Z" fill="var(--fill-0, #072723)"/>
<path id="Vector_3" d="M46.9197 20.6905L48.9661 15.6126L44.5324 4.96416H46.0861L49.004 12.1642C49.1555 12.6189 49.4208 13.1873 49.7239 13.9073C49.7618 13.7936 49.7997 13.68 49.8755 13.5663C49.9134 13.4526 49.9513 13.3389 50.0271 13.2252C50.1029 13.0357 50.2166 12.8463 50.2545 12.6568C50.2924 12.4673 50.3682 12.3157 50.444 12.1263L53.1724 4.92627H54.6503L48.4355 20.6526H46.9197V20.6905Z" fill="var(--fill-0, #072723)"/>
<path id="Vector_4" d="M56.0929 20.6906V4.96429H57.495V5.6464C57.495 5.79798 57.495 5.91166 57.495 6.06324C57.495 6.21482 57.495 6.3664 57.495 6.51797C57.495 6.59376 57.495 6.66955 57.495 6.74534C57.495 6.82113 57.495 6.89692 57.495 6.97271C57.874 6.29061 58.3666 5.72219 59.0866 5.30534C59.7687 4.8885 60.5266 4.66113 61.3982 4.66113C62.4213 4.66113 63.2929 4.9264 64.0508 5.41903C64.8087 5.91166 65.3771 6.59376 65.794 7.46534C66.2108 8.33692 66.4003 9.32219 66.4003 10.4211C66.4003 11.558 66.2108 12.5432 65.794 13.4148C65.3771 14.2864 64.7708 14.9685 64.0508 15.499C63.2929 15.9917 62.4213 16.2569 61.474 16.2569C60.6403 16.2569 59.9203 16.0674 59.2003 15.6506C58.5182 15.2717 57.9877 14.6653 57.5708 13.9074C57.5708 14.0211 57.5708 14.1348 57.5708 14.2864C57.5708 14.4001 57.5708 14.5138 57.5708 14.6274C57.5708 14.7032 57.5708 14.8169 57.5708 14.8927C57.5708 14.9685 57.5708 15.0443 57.5708 15.1201V20.7285H56.0929V20.6906ZM61.1708 15.0822C61.9287 15.0822 62.5729 14.8927 63.1413 14.4759C63.7098 14.059 64.1266 13.5285 64.4677 12.8085C64.7708 12.0885 64.9224 11.2927 64.9224 10.3832C64.9224 9.47376 64.7708 8.67797 64.4677 7.99587C64.1645 7.31376 63.7098 6.74534 63.1413 6.3664C62.5729 5.98745 61.9287 5.79797 61.1708 5.79797C60.4508 5.79797 59.8066 5.98745 59.2382 6.3664C58.6698 6.74534 58.215 7.27587 57.9119 7.99587C57.6087 8.67797 57.4192 9.51166 57.4192 10.4211C57.4192 11.3306 57.5708 12.1643 57.9119 12.8464C58.215 13.5664 58.6698 14.0969 59.2382 14.5138C59.8066 14.9306 60.4508 15.0822 61.1708 15.0822Z" fill="var(--fill-0, #072723)"/>
<path id="Vector_5" d="M73.1087 16.2189C72.0856 16.2189 71.1761 15.9915 70.3803 15.5368C69.5845 15.082 68.9782 14.3999 68.5614 13.5283C68.1445 12.6567 67.9171 11.5957 67.9171 10.3831C67.9171 9.28414 68.1445 8.29887 68.5992 7.42726C69.054 6.55568 69.6603 5.87357 70.4182 5.38094C71.1761 4.88831 72.0477 4.62305 72.995 4.62305C74.0182 4.62305 74.8898 4.85042 75.6477 5.34305C76.3677 5.79778 76.9361 6.47993 77.315 7.31361C77.694 8.18519 77.8835 9.17042 77.8835 10.3073V10.6105H69.3192C69.3192 11.5578 69.4708 12.3536 69.8119 13.0357C70.1529 13.7178 70.5698 14.2105 71.1382 14.5515C71.7066 14.8926 72.3887 15.082 73.1087 15.082C73.9803 15.082 74.7003 14.8925 75.3066 14.4757C75.875 14.0588 76.254 13.4146 76.3677 12.5809H77.7698C77.6561 13.263 77.4287 13.9073 77.0119 14.4378C76.6329 14.9683 76.1024 15.4231 75.4203 15.7262C74.814 16.0294 74.0182 16.2189 73.1087 16.2189ZM76.3677 9.54936C76.3677 8.41252 76.0645 7.50308 75.4582 6.82098C74.8519 6.13887 74.0561 5.79782 72.995 5.79782C71.9719 5.79782 71.1382 6.13884 70.494 6.85884C69.8498 7.57884 69.4708 8.45042 69.3571 9.54936H76.3677Z" fill="var(--fill-0, #072723)"/>
<path id="Vector_6" d="M80.0402 15.878V4.96429H81.4423V5.68429C81.4423 5.79797 81.4423 5.91166 81.4423 6.02534C81.4423 6.13903 81.4423 6.25271 81.4423 6.3664C81.4423 6.48008 81.4423 6.63166 81.4423 6.74534C81.4423 6.85903 81.4423 7.01061 81.4423 7.16219C81.7455 6.44219 82.2002 5.83587 82.8823 5.38113C83.5265 4.9264 84.2844 4.66113 85.156 4.66113C85.3833 4.66113 85.5728 4.66113 85.7623 4.69903V6.06324C85.497 6.02534 85.2697 6.02534 85.0802 6.02534C84.3602 6.02534 83.716 6.17692 83.1854 6.51797C82.6549 6.85903 82.2381 7.31376 81.9349 7.92008C81.6318 8.5264 81.4802 9.2464 81.4802 10.0422V15.9159H80.0402V15.878Z" fill="var(--fill-0, #072723)"/>
<path id="Vector_7" d="M89.2547 15.5749L89.1789 15.8781H84.7453L84.8211 15.5749C86.0337 15.4613 86.5642 15.0823 86.7537 14.1728L89.2547 2.38756C89.52 1.17493 89.1411 0.985458 87.8526 1.25072L87.9284 0.94756L90.6568 0.0380859H90.96L87.9663 14.2107C87.7389 15.0823 88.08 15.4613 89.2547 15.5749Z" fill="var(--fill-0, #072723)"/>
<path id="Vector_8" d="M94.2907 15.575L94.2149 15.8782H89.7433L89.8191 15.575C91.0317 15.4614 91.5623 15.0824 91.7517 14.173L93.2675 6.97297C93.5328 5.76034 93.1917 5.57087 91.8654 5.83613L91.9412 5.53293L94.6696 4.62346H94.9728L92.9644 14.173C92.7749 15.0824 93.1159 15.4614 94.2907 15.575ZM95.0486 0.644531C95.6549 0.644531 96.0338 1.09927 95.958 1.70558C95.8823 2.3119 95.3517 2.72874 94.7833 2.72874C94.177 2.72874 93.7601 2.274 93.8359 1.70558C93.8738 1.09927 94.4044 0.644531 95.0486 0.644531Z" fill="var(--fill-0, #072723)"/>
<path id="Vector_9" d="M101.949 19.061L103.162 13.4147C102.404 15.082 100.775 16.2189 99.1072 16.2189C96.3788 16.2189 95.0904 13.642 95.9241 9.81466C96.4925 7.01045 98.9935 4.62305 101.949 4.62305C103.314 4.62305 104.45 5.22936 104.905 6.13884L105.928 4.62305H106.231L103.124 19.061C102.897 20.0462 103.692 20.2357 104.488 20.3873L104.412 20.6905H99.2967L99.3725 20.3873C100.888 20.2357 101.76 20.0462 101.949 19.061ZM99.8651 15.423C101.267 15.423 102.669 14.2104 103.351 12.7704L104.261 8.45045C104.488 6.89677 103.768 5.2673 101.608 5.2673C99.562 5.2673 97.8188 7.12414 97.2504 9.81466C96.5683 13.1115 97.5535 15.423 99.8651 15.423Z" fill="var(--fill-0, #072723)"/>
<path id="Vector_10" d="M121.502 15.575L121.426 15.8782H116.954L117.03 15.575C118.243 15.4614 118.773 15.0824 118.963 14.173L120.478 6.97297C120.744 5.76034 120.403 5.57087 119.076 5.83613L119.152 5.53293L121.881 4.62346H122.184L120.175 14.173C119.986 15.0824 120.327 15.4614 121.502 15.575ZM122.26 0.644531C122.866 0.644531 123.245 1.09927 123.169 1.70558C123.093 2.3119 122.563 2.72874 121.994 2.72874C121.388 2.72874 120.971 2.274 121.047 1.70558C121.123 1.09927 121.653 0.644531 122.26 0.644531Z" fill="var(--fill-0, #072723)"/>
<path id="Vector_11" d="M115.173 14.1347L116.197 9.32199L117.182 4.62305H116.879L114.15 5.53252L114.075 5.83572C115.363 5.57045 115.704 5.75993 115.477 6.97256L114.188 13.1115C112.748 14.4378 111.763 15.2336 110.512 15.2336C108.997 15.2336 108.201 14.2105 108.58 12.4294L110.247 4.62305H109.944L107.216 5.53252L107.14 5.83572C108.428 5.57045 108.807 5.75993 108.542 6.97256L107.367 12.5809C106.912 14.6652 107.973 16.1809 109.906 16.1809C111.195 16.1809 112.331 15.461 114.112 13.5662L114.037 13.9452L113.658 15.802H116.5L116.576 15.461C115.325 15.4231 114.984 15.082 115.173 14.1347Z" fill="var(--fill-0, #072723)"/>
<path id="Vector_12" d="M133.397 4.20633L134.269 0H133.965L131.237 0.909474L131.161 1.21263C132.45 0.947365 132.791 1.13684 132.563 2.34947L131.805 5.94949C131.313 5.1537 130.252 4.62317 129.039 4.62317C126.045 4.62317 123.582 7.01054 122.938 10.0042C122.18 13.6421 123.431 16.219 126.159 16.219C127.864 16.219 129.494 15.0442 130.252 13.3769L130.062 14.3242L129.721 15.8779L132.563 15.84L132.639 15.5369C131.464 15.4232 131.123 15.0442 131.313 14.1347L133.397 4.20633ZM130.365 12.7326C129.721 14.2105 128.281 15.4232 126.879 15.4232C124.568 15.4232 123.582 13.1116 124.226 10.0042C124.833 7.08633 126.614 5.26738 128.66 5.26738C130.858 5.26738 131.578 7.01054 131.275 8.56422L131.161 9.05685L130.365 12.7326Z" fill="var(--fill-0, #072723)"/>
</g>
</g>
<defs>
<clipPath id="clip0_237_4104">
<rect width="134.269" height="20.7285" fill="white"/>
</clipPath>
</defs>
</svg>
