<svg preserveAspectRatio="none" width="100%" height="100%" overflow="visible" style="display: block;" viewBox="0 0 140.211 21.6" fill="none" xmlns="http://www.w3.org/2000/svg">
<g id="HL logo_dark green 2" clip-path="url(#clip0_0_396)">
<path id="Vector" d="M24.7467 9.01875C24.7467 17.1661 19.7446 19.7809 17.092 17.4693C14.932 15.5745 14.2878 11.5577 11.0288 11.1409C6.89828 10.6482 6.51933 16.143 3.79091 16.143C0.607754 16.143 0.00143814 11.5577 0.00143814 9.17032C0.00143814 6.74506 0.683543 3.4482 3.37407 3.4482C6.51933 3.4482 6.70881 8.18506 10.6499 7.9198C14.553 7.65454 14.6288 2.72821 17.2056 0.643998C19.4414 -1.21284 24.7467 0.757682 24.7467 9.01875Z" fill="var(--fill-0, #072723)"/>
<path id="Vector_2" d="M36.4993 16.5978V0.795679H38.0152V7.65464H47.2615V0.795679H48.7394V16.6357H47.2615V8.94303H38.0152V16.6357H36.4993V16.5978Z" fill="var(--fill-0, #072723)"/>
<path id="Vector_3" d="M52.6738 21.41L54.7201 16.3321L50.2864 5.68367H51.8401L54.758 12.8837C54.9096 13.3384 55.1748 13.9068 55.478 14.6268C55.5159 14.5131 55.5538 14.3995 55.6296 14.2858C55.6674 14.1721 55.7053 14.0584 55.7811 13.9447C55.8569 13.7552 55.9706 13.5658 56.0085 13.3763C56.0464 13.1868 56.1222 13.0353 56.198 12.8458L58.9264 5.64578H60.4043L54.1896 21.3721H52.6738V21.41Z" fill="var(--fill-0, #072723)"/>
<path id="Vector_4" d="M61.8469 21.4105V5.68416H63.249V6.36627C63.249 6.51785 63.249 6.63153 63.249 6.78311C63.249 6.93469 63.249 7.08627 63.249 7.23785C63.249 7.31364 63.249 7.38943 63.249 7.46522C63.249 7.54101 63.249 7.6168 63.249 7.69258C63.628 7.01048 64.1206 6.44206 64.8406 6.02522C65.5227 5.60837 66.2806 5.38101 67.1522 5.38101C68.1754 5.38101 69.0469 5.64627 69.8048 6.1389C70.5627 6.63153 71.1312 7.31364 71.548 8.18522C71.9648 9.0568 72.1543 10.0421 72.1543 11.141C72.1543 12.2778 71.9648 13.2631 71.548 14.1347C71.1312 15.0063 70.5248 15.6884 69.8048 16.2189C69.0469 16.7115 68.1754 16.9768 67.228 16.9768C66.3943 16.9768 65.6743 16.7873 64.9543 16.3705C64.2722 15.9915 63.7417 15.3852 63.3248 14.6273C63.3248 14.741 63.3248 14.8547 63.3248 15.0063C63.3248 15.12 63.3248 15.2336 63.3248 15.3473C63.3248 15.4231 63.3248 15.5368 63.3248 15.6126C63.3248 15.6884 63.3248 15.7642 63.3248 15.84V21.4484H61.8469V21.4105ZM66.9248 15.8021C67.6827 15.8021 68.3269 15.6126 68.8954 15.1957C69.4638 14.7789 69.8806 14.2484 70.2217 13.5284C70.5248 12.8084 70.6764 12.0126 70.6764 11.1031C70.6764 10.1936 70.5248 9.39785 70.2217 8.71574C69.9185 8.03364 69.4638 7.46522 68.8954 7.08627C68.3269 6.70732 67.6827 6.51785 66.9248 6.51785C66.2048 6.51785 65.5606 6.70732 64.9922 7.08627C64.4238 7.46522 63.969 7.99574 63.6659 8.71574C63.3627 9.39785 63.1733 10.2315 63.1733 11.141C63.1733 12.0505 63.3248 12.8842 63.6659 13.5663C63.969 14.2863 64.4238 14.8168 64.9922 15.2336C65.5606 15.6505 66.2048 15.8021 66.9248 15.8021Z" fill="var(--fill-0, #072723)"/>
<path id="Vector_5" d="M78.8627 16.9384C77.8396 16.9384 76.9301 16.711 76.1343 16.2563C75.3385 15.8015 74.7322 15.1194 74.3154 14.2478C73.8985 13.3762 73.6712 12.3152 73.6712 11.1026C73.6712 10.0036 73.8985 9.01838 74.3533 8.14676C74.808 7.27519 75.4143 6.59308 76.1722 6.10045C76.9301 5.60782 77.8017 5.34255 78.7491 5.34255C79.7722 5.34255 80.6438 5.56992 81.4017 6.06255C82.1217 6.51729 82.6901 7.19943 83.0691 8.03312C83.448 8.9047 83.6375 9.88992 83.6375 11.0268V11.33H75.0733C75.0733 12.2773 75.2248 13.0731 75.5659 13.7552C75.9069 14.4373 76.3238 14.93 76.8922 15.271C77.4606 15.6121 78.1427 15.8015 78.8627 15.8015C79.7343 15.8015 80.4543 15.612 81.0606 15.1952C81.6291 14.7783 82.008 14.1341 82.1217 13.3004H83.5238C83.4101 13.9826 83.1827 14.6268 82.7659 15.1573C82.3869 15.6878 81.8564 16.1426 81.1743 16.4458C80.568 16.7489 79.7722 16.9384 78.8627 16.9384ZM82.1217 10.2689C82.1217 9.13203 81.8185 8.22259 81.2122 7.54049C80.6059 6.85838 79.8101 6.51733 78.7491 6.51733C77.7259 6.51733 76.8922 6.85834 76.248 7.57834C75.6038 8.29834 75.2248 9.16992 75.1112 10.2689H82.1217Z" fill="var(--fill-0, #072723)"/>
<path id="Vector_6" d="M85.7942 16.5978V5.68416H87.1963V6.40416C87.1963 6.51785 87.1963 6.63153 87.1963 6.74522C87.1963 6.8589 87.1963 6.97258 87.1963 7.08627C87.1963 7.19995 87.1963 7.35153 87.1963 7.46522C87.1963 7.5789 87.1963 7.73048 87.1963 7.88206C87.4995 7.16206 87.9542 6.55574 88.6363 6.10101C89.2805 5.64627 90.0384 5.38101 90.91 5.38101C91.1374 5.38101 91.3268 5.38101 91.5163 5.4189V6.78311C91.251 6.74522 91.0237 6.74522 90.8342 6.74522C90.1142 6.74522 89.47 6.8968 88.9395 7.23785C88.4089 7.5789 87.9921 8.03364 87.6889 8.63995C87.3858 9.24627 87.2342 9.96627 87.2342 10.7621V16.6357H85.7942V16.5978Z" fill="var(--fill-0, #072723)"/>
<path id="Vector_7" d="M95.0088 16.2944L94.933 16.5976H90.4993L90.5751 16.2944C91.7877 16.1808 92.3182 15.8018 92.5077 14.8923L95.0088 3.10707C95.274 1.89444 94.8951 1.70496 93.6067 1.97023L93.6824 1.66707L96.4109 0.757593H96.714L93.7203 14.9302C93.493 15.8018 93.834 16.1808 95.0088 16.2944Z" fill="var(--fill-0, #072723)"/>
<path id="Vector_8" d="M100.045 16.2945L99.9689 16.5977H95.4973L95.5731 16.2945C96.7857 16.1809 97.3163 15.802 97.5057 14.8925L99.0215 7.69248C99.2868 6.47985 98.9458 6.29037 97.6194 6.55564L97.6952 6.25244L100.424 5.34297H100.727L98.7184 14.8925C98.5289 15.802 98.87 16.1809 100.045 16.2945ZM100.803 1.36404C101.409 1.36404 101.788 1.81877 101.712 2.42509C101.636 3.03141 101.106 3.44825 100.537 3.44825C99.931 3.44825 99.5142 2.99351 99.59 2.42509C99.6279 1.81877 100.158 1.36404 100.803 1.36404Z" fill="var(--fill-0, #072723)"/>
<path id="Vector_9" d="M107.703 19.7805L108.916 14.1342C108.158 15.8015 106.529 16.9384 104.861 16.9384C102.133 16.9384 100.844 14.3615 101.678 10.5342C102.247 7.72996 104.748 5.34255 107.703 5.34255C109.068 5.34255 110.204 5.94887 110.659 6.85834L111.682 5.34255H111.985L108.878 19.7805C108.651 20.7658 109.447 20.9552 110.242 21.1068L110.167 21.41H105.051L105.127 21.1068C106.642 20.9552 107.514 20.7658 107.703 19.7805ZM105.619 16.1426C107.021 16.1426 108.423 14.9299 109.105 13.4899L110.015 9.16996C110.242 7.61628 109.522 5.9868 107.362 5.9868C105.316 5.9868 103.573 7.84364 103.004 10.5342C102.322 13.831 103.308 16.1426 105.619 16.1426Z" fill="var(--fill-0, #072723)"/>
<path id="Vector_10" d="M127.256 16.2945L127.18 16.5977H122.708L122.784 16.2945C123.997 16.1809 124.527 15.802 124.717 14.8925L126.232 7.69248C126.498 6.47985 126.157 6.29037 124.83 6.55564L124.906 6.25244L127.635 5.34297H127.938L125.929 14.8925C125.74 15.802 126.081 16.1809 127.256 16.2945ZM128.014 1.36404C128.62 1.36404 128.999 1.81877 128.923 2.42509C128.847 3.03141 128.317 3.44825 127.748 3.44825C127.142 3.44825 126.725 2.99351 126.801 2.42509C126.877 1.81877 127.407 1.36404 128.014 1.36404Z" fill="var(--fill-0, #072723)"/>
<path id="Vector_11" d="M120.928 14.8542L121.951 10.0415L122.936 5.34255H122.633L119.904 6.25203L119.829 6.55522C121.117 6.28996 121.458 6.47943 121.231 7.69207L119.942 13.831C118.502 15.1573 117.517 15.9531 116.266 15.9531C114.751 15.9531 113.955 14.93 114.334 13.1489L116.001 5.34255H115.698L112.97 6.25203L112.894 6.55522C114.182 6.28996 114.561 6.47943 114.296 7.69207L113.121 13.3004C112.666 15.3847 113.728 16.9004 115.66 16.9004C116.949 16.9004 118.085 16.1805 119.866 14.2858L119.791 14.6647L119.412 16.5215H122.254L122.33 16.1805C121.079 16.1426 120.738 15.8015 120.928 14.8542Z" fill="var(--fill-0, #072723)"/>
<path id="Vector_12" d="M139.151 4.92583L140.023 0.719507H139.719L136.991 1.62898L136.915 1.93213C138.204 1.66687 138.545 1.85635 138.317 3.06898L137.559 6.66899C137.067 5.8732 136.006 5.34268 134.793 5.34268C131.799 5.34268 129.336 7.73005 128.692 10.7237C127.934 14.3616 129.185 16.9385 131.913 16.9385C133.618 16.9385 135.248 15.7637 136.006 14.0964L135.816 15.0437L135.475 16.5974L138.317 16.5595L138.393 16.2564C137.218 16.1427 136.877 15.7637 137.067 14.8543L139.151 4.92583ZM136.119 13.4522C135.475 14.93 134.035 16.1427 132.633 16.1427C130.322 16.1427 129.336 13.8311 129.981 10.7237C130.587 7.80583 132.368 5.98689 134.414 5.98689C136.612 5.98689 137.332 7.73004 137.029 9.28373L136.915 9.77636L136.119 13.4522Z" fill="var(--fill-0, #072723)"/>
</g>
<defs>
<clipPath id="clip0_0_396">
<rect width="140.211" height="21.6" fill="white"/>
</clipPath>
</defs>
</svg>
