<svg overflow="visible" style="display: block;" viewBox="0 0 15.4125 15.2063" fill="none" xmlns="http://www.w3.org/2000/svg">
<path id="Vector" d="M14.2875 5.47507V6.08668C14.2875 6.6454 13.9807 7.15901 13.4888 7.4239L9.1165 9.77821M1.125 5.47507V6.08668C1.125 6.6454 1.43177 7.15901 1.92371 7.4239L6.296 9.77821M12.2625 11.4722L9.1165 9.77821M9.1165 9.77821L8.42629 9.40655C7.97678 9.16451 7.43572 9.16451 6.98621 9.40655L6.296 9.77821M6.296 9.77821L3.15 11.4722M14.2875 12.5626C14.2875 13.4014 13.6075 14.0813 12.7687 14.0813H2.64375C1.80497 14.0813 1.125 13.4014 1.125 12.5626L1.125 5.36971C1.125 4.81099 1.43177 4.29739 1.92371 4.0325L6.98621 1.30653C7.43573 1.06449 7.97677 1.06449 8.42629 1.30653L13.4888 4.0325C13.9807 4.29739 14.2875 4.81099 14.2875 5.36971V12.5626Z" stroke="#3B82F7" stroke-width="2.25" stroke-linecap="round" stroke-linejoin="round"/>
</svg>
