<svg preserveAspectRatio="none" width="100%" height="100%" overflow="visible" style="display: block;" viewBox="0 0 156.213 29.8225" fill="none" xmlns="http://www.w3.org/2000/svg">
<g id="Perminal">
<path id="Vector" d="M152.99 29.3328C151.412 29.3328 150.148 28.9249 149.196 28.109C148.244 27.293 147.768 25.9876 147.768 24.1925V0.367554H152.99V23.6622C152.99 24.2061 153.126 24.6141 153.398 24.8861C153.697 25.158 154.105 25.294 154.622 25.294H156.213V29.3328H152.99Z" fill="var(--fill-0, black)"/>
<path id="Vector_2" d="M132.457 29.8225C130.172 29.8225 128.336 29.3058 126.949 28.2723C125.562 27.2116 124.869 25.7429 124.869 23.8663C124.869 21.9897 125.453 20.521 126.623 19.4603C127.792 18.3996 129.574 17.6381 131.967 17.1757L139.188 15.7479C139.188 14.1976 138.835 13.0417 138.127 12.2802C137.42 11.4915 136.373 11.0971 134.986 11.0971C133.735 11.0971 132.742 11.3963 132.008 11.9946C131.301 12.5658 130.811 13.3953 130.539 14.4832L125.236 14.2384C125.671 11.9266 126.732 10.1588 128.418 8.93489C130.104 7.68381 132.294 7.05827 134.986 7.05827C138.087 7.05827 140.426 7.847 142.003 9.42445C143.608 10.9747 144.41 13.2049 144.41 16.115V24.0295C144.41 24.6006 144.505 24.995 144.696 25.2126C144.913 25.4301 145.226 25.5389 145.634 25.5389H146.327V29.333C146.164 29.3874 145.892 29.4282 145.512 29.4554C145.158 29.4826 144.791 29.4962 144.41 29.4962C143.513 29.4962 142.71 29.3602 142.003 29.0882C141.296 28.789 140.752 28.2859 140.371 27.5787C139.99 26.8444 139.8 25.8517 139.8 24.6006L140.249 24.927C140.031 25.8789 139.555 26.7356 138.821 27.4972C138.114 28.2315 137.216 28.8026 136.128 29.2106C135.041 29.6186 133.817 29.8225 132.457 29.8225ZM133.517 26.0285C134.687 26.0285 135.693 25.7973 136.536 25.335C137.38 24.8726 138.032 24.2335 138.495 23.4175C138.957 22.6016 139.188 21.6361 139.188 20.521V19.2971L133.558 20.4394C132.389 20.6842 131.546 21.0514 131.029 21.5409C130.539 22.0033 130.295 22.6152 130.295 23.3767C130.295 24.2199 130.567 24.8726 131.111 25.335C131.682 25.7973 132.484 26.0285 133.517 26.0285Z" fill="var(--fill-0, black)"/>
<path id="Vector_3" d="M103.741 29.333V7.54782H108.473L108.677 13.6673L108.065 13.4225C108.283 11.8994 108.732 10.6755 109.412 9.75082C110.091 8.82611 110.921 8.14617 111.9 7.71101C112.879 7.27585 113.954 7.05827 115.123 7.05827C116.728 7.05827 118.074 7.41184 119.162 8.11897C120.277 8.8261 121.12 9.80521 121.691 11.0563C122.262 12.2802 122.548 13.708 122.548 15.3399V29.333H117.326V17.0125C117.326 15.7887 117.204 14.7551 116.959 13.912C116.714 13.0689 116.306 12.4298 115.735 11.9946C115.191 11.5322 114.457 11.3011 113.532 11.3011C112.145 11.3011 111.03 11.7906 110.187 12.7697C109.371 13.7488 108.963 15.1631 108.963 17.0125V29.333H103.741Z" fill="var(--fill-0, black)"/>
<path id="Vector_4" d="M94.0992 29.3325V7.54734H99.3211V29.3325H94.0992ZM94.0176 4.65081V4.37873e-05H99.4435V4.65081H94.0176Z" fill="var(--fill-0, black)"/>
<path id="Vector_5" d="M59.7155 29.333V7.54782H64.4478L64.611 12.8921L64.1215 12.6473C64.3662 11.4779 64.7878 10.4851 65.3861 9.66922C66.0117 8.8261 66.7596 8.18696 67.6299 7.7518C68.5275 7.28945 69.5066 7.05827 70.5673 7.05827C72.4167 7.05827 73.9125 7.58862 75.0548 8.64932C76.1971 9.68282 76.9179 11.1107 77.217 12.9329H76.5235C76.7683 11.6546 77.1898 10.5939 77.7882 9.75082C78.3865 8.8805 79.1345 8.21416 80.032 7.7518C80.9567 7.28945 81.9902 7.05827 83.1325 7.05827C84.6283 7.05827 85.9202 7.38464 87.0081 8.03738C88.096 8.66292 88.9255 9.58763 89.4967 10.8115C90.095 12.0354 90.3942 13.5449 90.3942 15.3399V29.333H85.1723V16.6862C85.1723 14.8911 84.8595 13.5449 84.234 12.6473C83.6356 11.7498 82.7109 11.3011 81.4598 11.3011C80.6167 11.3011 79.896 11.5187 79.2976 11.9538C78.6993 12.389 78.2369 13.0281 77.9106 13.8712C77.6114 14.6872 77.4618 15.6799 77.4618 16.8494V29.333H72.6071V16.8494C72.6071 15.0543 72.3351 13.6809 71.7912 12.7289C71.2472 11.777 70.3089 11.3011 68.9762 11.3011C68.1331 11.3011 67.4124 11.5187 66.814 11.9538C66.2429 12.389 65.7805 13.0281 65.4269 13.8712C65.1006 14.6872 64.9374 15.6799 64.9374 16.8494V29.333H59.7155Z" fill="var(--fill-0, black)"/>
<path id="Vector_6" d="M45.9691 29.3323V7.54717H50.8647L51.0687 13.585L50.6199 13.5034C50.9463 11.4092 51.5582 9.89976 52.4557 8.97504C53.3804 8.02313 54.6315 7.54717 56.209 7.54717H58.208V12.0348H56.1682C55.0531 12.0348 54.1284 12.1979 53.394 12.5243C52.6597 12.8507 52.1022 13.3674 51.7214 14.0746C51.3678 14.7545 51.191 15.652 51.191 16.7671V29.3323H45.9691Z" fill="var(--fill-0, black)"/>
<path id="Vector_7" d="M33.3197 29.8225C31.1439 29.8225 29.2537 29.3602 27.6491 28.4355C26.0444 27.4836 24.8069 26.1509 23.9366 24.4374C23.0663 22.724 22.6311 20.725 22.6311 18.4404C22.6311 16.1558 23.0663 14.1704 23.9366 12.4842C24.8069 10.7707 26.0308 9.43805 27.6083 8.48614C29.2129 7.53423 31.0759 7.05827 33.1973 7.05827C35.2643 7.05827 37.073 7.52063 38.6232 8.44534C40.2007 9.37005 41.411 10.7027 42.2541 12.4434C43.0972 14.184 43.5188 16.2782 43.5188 18.726V19.9091H28.057C28.1658 21.8129 28.6826 23.2544 29.6073 24.2335C30.5592 25.1854 31.8103 25.6613 33.3605 25.6613C34.53 25.6613 35.4955 25.403 36.2571 24.8862C37.0458 24.3422 37.5897 23.5943 37.8889 22.6424L43.2332 22.9688C42.6349 25.0902 41.4518 26.7628 39.6839 27.9867C37.9433 29.2106 35.8219 29.8225 33.3197 29.8225ZM28.057 16.4006H38.1337C38.0249 14.6328 37.5217 13.3273 36.6242 12.4842C35.7267 11.6138 34.5844 11.1787 33.1973 11.1787C31.8103 11.1787 30.6544 11.6274 29.7297 12.525C28.8321 13.4225 28.2746 14.7144 28.057 16.4006Z" fill="var(--fill-0, black)"/>
<path id="Vector_8" d="M0 29.3328V0.367554H11.2189C14.6186 0.367554 17.2704 1.18348 19.1742 2.81533C21.078 4.44717 22.0299 6.70456 22.0299 9.58749C22.0299 11.5185 21.5948 13.1912 20.7245 14.6054C19.8541 15.9925 18.6167 17.0532 17.012 17.7875C15.4074 18.5219 13.4763 18.889 11.2189 18.889H5.3035V29.3328H0ZM5.3035 14.279H10.9742C12.7692 14.279 14.1427 13.8847 15.0946 13.096C16.0737 12.3072 16.5632 11.1377 16.5632 9.58749C16.5632 8.06443 16.0737 6.92214 15.0946 6.16061C14.1427 5.37189 12.7692 4.97752 10.9742 4.97752H5.3035V14.279Z" fill="var(--fill-0, black)"/>
</g>
</svg>
