<svg preserveAspectRatio="none" width="100%" height="100%" overflow="visible" style="display: block;" viewBox="0 0 658.993 62.8825" fill="none" xmlns="http://www.w3.org/2000/svg">
<g id="Trade What Happens. Together.">
<path id="Vector" d="M655.345 41.3462C656.312 41.3462 657.105 41.738 657.673 42.5083L657.864 42.7818C658.278 43.433 658.481 44.1754 658.481 44.9937C658.481 45.9472 658.217 46.8021 657.678 47.5367L657.673 47.5435C657.102 48.2962 656.308 48.6743 655.345 48.6743C654.393 48.6743 653.604 48.2764 653.019 47.5132L653.013 47.5064L653.007 47.4986C652.477 46.7507 652.209 45.9106 652.209 44.9937V44.9302C652.209 44.013 652.477 43.1879 653.017 42.4761C653.588 41.7235 654.383 41.3462 655.345 41.3462Z" fill="var(--fill-0, black)" stroke="var(--stroke-0, black)" stroke-width="1.02404"/>
<path id="Vector_2" d="M643.126 16.588C643.439 16.6368 643.661 16.847 643.795 17.0909C643.9 17.2828 643.966 17.5161 644.007 17.7706L644.04 18.0313V18.0362C644.085 18.5525 644.106 19.5348 644.106 20.961C644.106 21.2509 644.111 21.4984 644.121 21.7052C644.244 21.5026 644.391 21.2572 644.557 20.9649C644.839 20.4651 645.115 20.0326 645.386 19.671C646.787 17.7131 648.439 16.6407 650.347 16.6407C651.566 16.6408 652.566 17.0674 653.274 17.9532H653.273C653.988 18.7976 654.314 19.9279 654.314 21.2813C654.314 22.3894 654.088 23.3324 653.585 24.0635L653.586 24.0645C653.07 24.8254 652.278 25.1856 651.307 25.1856C650.523 25.1856 649.846 24.9587 649.348 24.4464C648.859 23.9437 648.605 23.2308 648.524 22.3858V22.378L648.523 22.3702C648.482 21.7295 648.388 21.31 648.274 21.0665C648.219 20.949 648.172 20.8986 648.148 20.88C648.133 20.8678 648.124 20.8653 648.106 20.8653C647.226 20.8653 646.318 21.6285 645.514 23.7657L645.51 23.7755L645.506 23.7843C644.826 25.3898 644.49 26.9974 644.49 28.6094V41.6661C644.49 42.4977 644.522 43.1782 644.583 43.712C644.644 44.2495 644.732 44.6014 644.824 44.8048L644.889 44.9093C645.078 45.1559 645.546 45.4133 646.54 45.5421L646.545 45.543C647.309 45.6492 647.903 45.7718 648.286 45.9229C648.491 45.99 648.694 46.0899 648.852 46.2481C649.031 46.4264 649.131 46.6568 649.131 46.9141C649.131 47.1081 649.097 47.3115 648.999 47.4971C648.903 47.678 648.757 47.8141 648.578 47.9034L648.579 47.9053C648.572 47.9091 648.564 47.9115 648.558 47.9151C648.551 47.9182 648.545 47.9229 648.538 47.9259L648.537 47.9239C648.367 48.009 648.167 48.0575 647.969 48.085C647.745 48.1161 647.48 48.1299 647.179 48.13H647.157L647.136 48.128L645.599 48.0001C644.594 47.9163 643.371 47.8741 641.93 47.8741C640.812 47.8741 639.792 47.9154 638.872 47.9991L638.873 48.0001C638.414 48.0427 638.061 48.0743 637.814 48.0958C637.586 48.1157 637.414 48.13 637.353 48.13C636.93 48.1299 636.532 48.0753 636.223 47.9083C636.06 47.8205 635.913 47.6964 635.808 47.5264C635.703 47.3552 635.658 47.1661 635.658 46.9776C635.658 46.5572 635.794 46.0885 636.261 45.88C636.55 45.7352 636.993 45.6299 637.529 45.544L637.548 45.5411L637.566 45.5401C638.542 45.4571 638.926 45.1975 639.049 44.9727L639.053 44.9649L639.058 44.9571C639.143 44.8121 639.236 44.5236 639.303 44.0362C639.368 43.5611 639.402 42.9438 639.402 42.1778V25.4093C639.402 24.7786 639.357 24.2821 639.277 23.9093C639.195 23.5275 639.086 23.3261 638.998 23.2325L638.987 23.2218L638.978 23.211C638.793 22.9905 638.328 22.7852 637.353 22.7852C637.028 22.7852 636.698 22.7367 636.433 22.5704C636.129 22.3789 635.978 22.0728 635.977 21.7296C635.977 21.3296 636.154 20.99 636.445 20.7305C636.721 20.4844 637.098 20.3107 637.528 20.1827L637.546 20.1768C638.855 19.8395 639.999 19.1567 640.981 18.1143L640.986 18.1085L640.992 18.1026C641.111 17.984 641.252 17.8318 641.419 17.6446C641.589 17.4528 641.694 17.3284 641.744 17.2618L641.766 17.2325L641.792 17.2071C641.892 17.1068 642.002 17.0087 642.122 16.9132C642.229 16.8274 642.361 16.735 642.503 16.6807C642.658 16.6097 642.821 16.5772 642.986 16.5772L643.126 16.588Z" fill="var(--fill-0, black)" stroke="var(--stroke-0, black)" stroke-width="1.02404"/>
<path id="Vector_3" d="M624.894 16.5772C627.697 16.5772 629.987 17.5826 631.712 19.6016H631.713C633.455 21.6149 634.302 24.2619 634.302 27.4893C634.302 28.3368 634.286 29.0239 634.253 29.546C634.222 30.0433 634.172 30.4565 634.078 30.7091C633.952 31.0432 633.691 31.2609 633.384 31.3868C633.09 31.5076 632.735 31.5538 632.35 31.5538H618.974C618.665 31.5538 618.426 31.5764 618.249 31.6143C618.068 31.6533 617.984 31.7008 617.954 31.7257C617.903 31.7673 617.79 31.9272 617.789 32.4171C617.789 36.2342 618.555 39.263 620.041 41.544L620.327 41.9542C621.78 43.9398 623.615 44.8975 625.854 44.8975C627.303 44.8975 628.481 44.6147 629.414 44.0782C630.343 43.5444 631.061 42.7409 631.565 41.6436L631.569 41.6368L631.573 41.629C631.673 41.4278 631.775 41.2038 631.877 40.9571L631.884 40.9405L631.892 40.9249C632.018 40.6722 632.109 40.4796 632.167 40.3438C632.24 40.1757 632.323 40.009 632.417 39.8438C632.509 39.6838 632.611 39.5293 632.724 39.4161L632.749 39.3897L632.779 39.3682C632.93 39.2546 633.121 39.17 633.342 39.17L633.457 39.1768C633.574 39.1907 633.69 39.2267 633.8 39.2921C633.946 39.3787 634.052 39.5005 634.125 39.6319C634.264 39.8791 634.302 40.1841 634.302 40.4815C634.302 40.8705 634.201 41.3365 634.029 41.8585C633.854 42.3872 633.596 43.0052 633.26 43.71L633.247 43.7374C632.412 45.2476 631.238 46.4547 629.733 47.3536L629.731 47.3546C628.244 48.2334 626.628 48.6739 624.894 48.6739C621.056 48.6739 617.971 47.2337 615.692 44.3516L615.691 44.3497C613.428 41.465 612.318 37.7395 612.318 33.2178C612.318 30.5068 612.675 28.0611 613.4 25.8878C614.075 23.8609 614.971 22.1907 616.098 20.8975L616.328 20.6436C617.539 19.3232 618.87 18.3117 620.322 17.6192L620.324 17.6173C621.797 16.9253 623.322 16.5772 624.894 16.5772ZM624.414 19.1046C622.6 19.1047 621.081 19.9301 619.84 21.67L619.841 21.671C618.606 23.4322 617.982 25.5033 617.982 27.9053V27.9698C617.982 28.4327 618.101 28.5647 618.163 28.6055C618.233 28.6347 618.415 28.6816 618.767 28.7159C619.128 28.751 619.611 28.7696 620.222 28.7696C621.211 28.7696 622.448 28.7276 623.935 28.6427L624.798 28.5821C625.62 28.5178 626.316 28.4411 626.887 28.3516C627.644 28.2332 628.143 28.0979 628.427 27.9649C628.968 27.6517 629.342 26.9368 629.342 25.5372C629.342 23.5688 628.881 22.0219 628.004 20.8526L627.998 20.8448C627.164 19.6884 625.992 19.1046 624.414 19.1046Z" fill="var(--fill-0, black)" stroke="var(--stroke-0, black)" stroke-width="1.02404"/>
<path id="Vector_4" d="M608.568 42.5611C608.568 43.7572 608.718 44.5188 608.948 44.9322C609.109 45.2038 609.414 45.4212 609.979 45.5094L610.239 45.5387L610.25 45.5397C610.898 45.6045 611.43 45.7066 611.79 45.8727C611.999 45.9689 612.185 46.1125 612.317 46.3151C612.449 46.5182 612.504 46.7465 612.504 46.9772C612.504 47.3178 612.38 47.6465 612.08 47.8688C611.809 48.0697 611.464 48.1295 611.128 48.1295C611.094 48.1295 610.903 48.1162 610.62 48.0963C610.316 48.0749 609.864 48.0433 609.267 48.0006C608.082 47.916 606.996 47.8737 606.008 47.8736C604.803 47.8736 603.741 47.915 602.821 47.9986L602.822 47.9996C601.921 48.0835 601.355 48.1295 601.175 48.1295C600.816 48.1295 600.453 48.0636 600.17 47.8492C599.861 47.6145 599.736 47.2711 599.736 46.9137C599.736 46.5168 599.871 46.0811 600.312 45.8766C600.593 45.7373 600.992 45.6321 601.468 45.5455L601.49 45.5416L601.514 45.5397C602.443 45.4571 602.895 45.2273 603.077 44.9967L603.082 44.9899L603.088 44.984C603.306 44.7249 603.48 44.1699 603.48 43.1695V26.0484C603.48 24.2687 603.081 22.9618 602.353 22.0602L602.169 21.8551C601.23 20.8636 599.958 20.3531 598.295 20.3531C596.485 20.3532 594.901 20.9747 593.521 22.235L593.519 22.2359C592.251 23.3849 591.639 24.7233 591.639 26.2731V42.9137C591.639 43.8588 591.832 44.4643 592.127 44.8238C592.404 45.1395 593.004 45.417 594.097 45.5406H594.098C594.661 45.6056 595.158 45.7215 595.485 45.9498H595.484C595.651 46.0502 595.796 46.1842 595.899 46.3609C596.01 46.5534 596.055 46.7653 596.055 46.9772C596.055 47.3324 595.915 47.6631 595.602 47.8795C595.323 48.072 594.968 48.1295 594.615 48.1295C594.435 48.1295 594.132 48.1055 593.73 48.0631L593.727 48.0621C593.359 48.0212 592.763 47.9797 591.933 47.9371H591.932C591.133 47.8951 590.15 47.8736 588.983 47.8736C587.908 47.8737 586.91 47.9159 585.989 47.9996C585.059 48.0842 584.446 48.1295 584.183 48.1295C583.836 48.1295 583.481 48.051 583.211 47.8024C582.934 47.5465 582.839 47.1952 582.839 46.8492C582.839 46.4346 583.08 46.1264 583.377 45.9186C583.679 45.686 584.039 45.5656 584.432 45.5387C585.54 45.455 586.039 45.1796 586.218 44.9059L586.221 44.902C586.336 44.729 586.447 44.4384 586.527 43.9918C586.605 43.5512 586.647 42.9912 586.647 42.3053V7.3922C586.647 7.00093 586.614 6.69909 586.558 6.47618C586.501 6.25067 586.431 6.14016 586.381 6.09044L586.367 6.07677L586.354 6.06115C586.307 6.00691 586.19 5.91811 585.936 5.82579C585.688 5.73576 585.351 5.6565 584.912 5.59532V5.59435C584.393 5.53185 583.984 5.46415 583.747 5.3756L583.722 5.36583L583.697 5.35411C583.532 5.27138 583.388 5.14602 583.29 4.97423C583.194 4.80567 583.158 4.62244 583.158 4.44786C583.159 3.70729 583.775 3.30643 584.435 3.09923L585.293 2.80236C587.21 2.12847 588.515 1.58021 589.237 1.15782L589.245 1.15294L589.255 1.14708C589.622 0.952731 589.926 0.802174 590.161 0.698841C590.278 0.647435 590.387 0.604973 590.482 0.573841C590.564 0.547009 590.684 0.512356 590.807 0.512317C591.263 0.512317 591.463 0.89228 591.534 1.11486C591.613 1.35814 591.639 1.67122 591.639 2.01622V21.1236C591.733 21.0923 591.836 21.0319 591.949 20.9186C594.591 18.2775 597.337 16.8961 600.184 16.8961C602.648 16.8962 604.666 17.6857 606.185 19.2945C607.703 20.8815 608.479 23.0634 608.568 25.776V42.5611Z" fill="var(--fill-0, black)" stroke="var(--stroke-0, black)" stroke-width="1.02404"/>
<path id="Vector_5" d="M575.855 8.76888C576.039 8.76891 576.239 8.80659 576.419 8.9222C576.583 9.02753 576.692 9.17578 576.76 9.33919C576.845 9.50963 576.885 9.72463 576.907 9.92806C576.932 10.146 576.943 10.4125 576.943 10.721V16.3529C576.943 16.8554 577.039 17.0636 577.099 17.1302C577.143 17.1797 577.299 17.2806 577.742 17.2806H581.038C581.571 17.2806 582.071 17.348 582.421 17.5775H582.422C582.429 17.5814 582.435 17.5861 582.442 17.5902C582.445 17.5926 582.449 17.5946 582.452 17.597H582.451C582.867 17.8644 582.99 18.3355 582.99 18.7845C582.99 19.3046 582.855 19.8167 582.428 20.1273L582.426 20.1253C582.234 20.2723 581.998 20.3574 581.758 20.4066C581.505 20.4585 581.209 20.4808 580.879 20.4808H577.615C577.379 20.4808 577.21 20.4988 577.095 20.5247C577.051 20.5346 577.022 20.5448 577.003 20.5521C576.997 20.5724 576.989 20.6006 576.982 20.639C576.958 20.7658 576.943 20.9551 576.943 21.2171V41.9222C576.943 43.0668 577.131 43.8369 577.436 44.307C577.716 44.7388 578.122 44.9622 578.735 44.9622C579.499 44.9622 580.257 44.5173 580.995 43.3997L580.996 43.3978C581.075 43.2794 581.178 43.1166 581.304 42.9066C581.368 42.7999 581.424 42.7063 581.472 42.6263L581.598 42.4163L581.605 42.4056C581.701 42.2613 581.808 42.1187 581.925 41.9779C582.045 41.8344 582.169 41.705 582.299 41.6077C582.451 41.4942 582.641 41.4096 582.863 41.4095C583.12 41.4095 583.408 41.4658 583.635 41.6673C583.873 41.879 583.95 42.1677 583.95 42.4339C583.95 42.7647 583.826 43.2341 583.635 43.7855L583.632 43.7913C583.429 44.3549 583.13 45.0074 582.74 45.7454L582.737 45.7513C582.303 46.5465 581.626 47.2242 580.739 47.7933C579.818 48.3835 578.771 48.6742 577.615 48.6742C575.855 48.6741 574.419 48.1863 573.38 47.1478L573.37 47.138L573.361 47.1263C572.357 45.9999 571.918 44.1529 571.918 41.7298V20.6087C571.918 20.4301 571.877 20.3371 571.841 20.2874C571.807 20.2405 571.74 20.1834 571.592 20.1429L571.573 20.138L571.556 20.1322C571.303 20.0429 570.916 20.0125 570.359 20.0921L570.323 20.097H570.286C569.868 20.097 569.461 20.0253 569.149 19.8021C568.804 19.556 568.655 19.1858 568.655 18.7845C568.655 18.6076 568.719 18.4457 568.777 18.3284C568.84 18.1997 568.927 18.0621 569.03 17.9193C569.234 17.6329 569.53 17.2819 569.909 16.8704L569.915 16.8636L570.231 16.5267C571.792 14.8206 573.185 12.7866 574.407 10.4212L574.421 10.3939C574.431 10.3751 574.431 10.3759 574.441 10.3558C574.444 10.35 574.457 10.3213 574.461 10.3138L574.467 10.3021C574.472 10.2927 574.468 10.3012 574.473 10.2913L574.485 10.2679C574.497 10.2431 574.521 10.1936 574.536 10.1634C574.553 10.1311 574.549 10.1396 574.566 10.1058C574.576 10.086 574.571 10.0952 574.58 10.0755L574.588 10.0599C574.595 10.0464 574.59 10.0569 574.597 10.0433C574.738 9.74123 574.87 9.48901 574.996 9.30013C575.06 9.20462 575.131 9.11224 575.208 9.0345C575.28 8.9632 575.395 8.86601 575.554 8.82064L575.573 8.81478L575.594 8.81087L575.754 8.77865L575.804 8.76888H575.855Z" fill="var(--fill-0, black)" stroke="var(--stroke-0, black)" stroke-width="1.02404"/>
<path id="Vector_6" d="M558.339 16.5772C561.142 16.5772 563.431 17.5826 565.157 19.6016H565.158C566.9 21.6149 567.747 24.2619 567.747 27.4893C567.747 28.3368 567.731 29.0239 567.698 29.546C567.667 30.0433 567.617 30.4565 567.522 30.7091C567.397 31.0432 567.136 31.2609 566.829 31.3868C566.534 31.5076 566.18 31.5538 565.795 31.5538H552.419C552.11 31.5538 551.871 31.5764 551.694 31.6143C551.512 31.6533 551.429 31.7008 551.398 31.7257C551.348 31.7673 551.234 31.9272 551.234 32.4171C551.234 36.2342 552 39.263 553.486 41.544L553.771 41.9542C555.225 43.9398 557.059 44.8975 559.299 44.8975C560.748 44.8975 561.926 44.6147 562.859 44.0782C563.787 43.5444 564.505 42.7409 565.01 41.6436L565.013 41.6368L565.017 41.629C565.118 41.4278 565.219 41.2038 565.322 40.9571L565.329 40.9405L565.337 40.9249C565.463 40.6722 565.554 40.4796 565.612 40.3438C565.684 40.1757 565.768 40.009 565.862 39.8438C565.954 39.6838 566.056 39.5293 566.169 39.4161L566.194 39.3897L566.223 39.3682C566.375 39.2546 566.566 39.17 566.787 39.17L566.902 39.1768C567.018 39.1907 567.135 39.2267 567.245 39.2921C567.39 39.3787 567.497 39.5005 567.57 39.6319C567.708 39.8791 567.747 40.1841 567.747 40.4815C567.747 40.8705 567.646 41.3365 567.473 41.8585C567.299 42.3872 567.041 43.0052 566.705 43.71L566.691 43.7374C565.857 45.2476 564.683 46.4547 563.177 47.3536L563.176 47.3546C561.688 48.2334 560.073 48.6739 558.339 48.6739C554.501 48.6739 551.415 47.2337 549.136 44.3516L549.136 44.3497C546.872 41.465 545.763 37.7395 545.762 33.2178C545.762 30.5068 546.12 28.0611 546.844 25.8878C547.52 23.8609 548.415 22.1907 549.543 20.8975L549.772 20.6436C550.983 19.3232 552.314 18.3117 553.766 17.6192L553.768 17.6173C555.242 16.9253 556.767 16.5772 558.339 16.5772ZM557.858 19.1046C556.044 19.1047 554.526 19.9301 553.285 21.67L553.286 21.671C552.051 23.4322 551.427 25.5033 551.427 27.9053V27.9698C551.427 28.4327 551.546 28.5647 551.607 28.6055C551.678 28.6347 551.859 28.6816 552.212 28.7159C552.572 28.751 553.056 28.7696 553.667 28.7696C554.656 28.7696 555.893 28.7276 557.38 28.6427L558.243 28.5821C559.064 28.5178 559.76 28.4411 560.332 28.3516C561.089 28.2332 561.588 28.0979 561.872 27.9649C562.412 27.6517 562.787 26.9368 562.787 25.5372C562.787 23.5688 562.326 22.0219 561.449 20.8526L561.443 20.8448C560.609 19.6884 559.436 19.1046 557.858 19.1046Z" fill="var(--fill-0, black)" stroke="var(--stroke-0, black)" stroke-width="1.02404"/>
<path id="Vector_7" d="M532.376 16.5772C533.781 16.5772 535.401 17.0453 537.222 17.9317L537.454 18.0245C538.014 18.2278 538.696 18.3369 539.512 18.337H542.904C543.701 18.337 544.372 18.43 544.862 18.6651C544.866 18.6668 544.871 18.6683 544.875 18.67C544.881 18.673 544.888 18.6757 544.894 18.6788H544.893C545.18 18.8066 545.412 19.0097 545.567 19.2872C545.723 19.5661 545.784 19.8883 545.784 20.2247C545.784 20.7252 545.66 21.205 545.295 21.5333L545.284 21.544L545.273 21.5528C545.073 21.7125 544.817 21.7981 544.563 21.8477C544.3 21.8989 543.99 21.921 543.641 21.921C542.973 21.921 542.459 21.9005 542.119 21.8575C541.849 21.8581 541.651 21.8717 541.514 21.8927C541.556 22.0207 541.614 22.2044 541.687 22.4415L541.836 22.8487C541.881 22.9768 541.92 23.098 541.954 23.212C542.334 24.4638 542.521 25.8703 542.521 27.4249C542.521 28.5125 542.387 29.5796 542.12 30.6241C541.852 31.674 541.428 32.6969 540.853 33.6934L540.854 33.6944C540.277 34.7091 539.452 35.5757 538.393 36.2969L538.392 36.296C537.352 37.0185 536.141 37.5099 534.769 37.7784C531.544 38.6757 529.546 39.3446 528.709 39.7833C527.906 40.204 527.64 40.6599 527.64 41.1221C527.64 41.505 527.777 41.8141 528.074 42.0811C528.422 42.3717 528.799 42.5679 529.209 42.6749C529.661 42.7927 530.097 42.8497 530.52 42.8497C531.042 42.8497 531.834 42.8288 532.899 42.7862C533.99 42.7434 534.841 42.7218 535.448 42.7218C539.158 42.7218 541.96 43.3971 543.74 44.8536C545.532 46.3199 546.393 48.5009 546.393 51.2979C546.393 53.3916 545.66 55.2891 544.222 56.9747C542.798 58.6436 540.967 59.9151 538.744 60.796C536.526 61.6963 534.178 62.1465 531.704 62.1466C530.531 62.1466 529.369 62.0023 528.22 61.7149C527.067 61.4268 525.96 60.9846 524.899 60.3887L524.694 60.2725C523.679 59.6764 522.849 58.8382 522.208 57.7696V57.7686C521.515 56.6338 521.176 55.3246 521.176 53.8585C521.176 51.5677 522.29 49.7116 524.414 48.3106C524.724 48.0903 525.093 47.8512 525.521 47.5948L525.528 47.5899L525.537 47.585C525.936 47.3655 526.243 47.1865 526.462 47.0489C526.419 46.9984 526.361 46.9359 526.285 46.8604L526.098 46.6729C526.091 46.6658 526.098 46.6719 526.091 46.6651L525.794 46.3682L525.782 46.3555C525.65 46.2046 525.452 46.0045 525.181 45.754L525.173 45.7471L525.133 45.7071L525.131 45.7061L525.13 45.7042L525.004 45.5782C524.996 45.5703 525 45.5753 524.992 45.5675C524.99 45.5648 524.984 45.5584 524.982 45.5557L524.698 45.2725C524.691 45.2648 524.669 45.2438 524.661 45.2364C524.637 45.2118 524.615 45.1893 524.592 45.1661L524.536 45.1104L523.99 44.585C523.478 44.0834 523.069 43.6511 522.767 43.2901C522.566 43.0503 522.402 42.8302 522.286 42.6339C522.181 42.4552 522.071 42.2254 522.071 41.9854C522.071 41.7738 522.098 41.5679 522.162 41.376L522.169 41.3555L522.177 41.336C522.231 41.209 522.292 41.0887 522.359 40.9815L522.43 40.879C522.544 40.7074 522.709 40.5561 522.885 40.4239C523.076 40.2758 523.255 40.1522 523.419 40.0675C523.568 39.9704 523.808 39.83 524.125 39.6514C524.464 39.4607 524.737 39.3033 524.944 39.1788L524.97 39.1632L524.996 39.1514C526.262 38.5771 527.198 38.1178 527.813 37.7716C527.96 37.6885 528.085 37.613 528.19 37.5469C528.113 37.511 528.029 37.4695 527.936 37.4259L527.923 37.42C527.598 37.2576 527.276 37.0614 526.958 36.8341C523.758 34.5514 522.168 31.2412 522.168 26.9776V26.9132C522.168 25.2025 522.596 23.5616 523.445 21.9971L523.447 21.9942C524.321 20.403 525.544 19.1034 527.107 18.0987L527.109 18.0968C528.707 17.0841 530.467 16.5772 532.376 16.5772ZM534.649 47.6182C531.863 47.6182 529.983 47.7642 528.955 48.0323C528.095 48.5129 527.389 49.247 526.843 50.2608C526.277 51.3108 526.008 52.3052 526.008 53.2501C526.008 55.0489 526.573 56.4778 527.687 57.5802L527.917 57.796V57.7969C529.212 58.9541 530.937 59.5547 533.144 59.5548H533.208C535.603 59.5547 537.56 58.9122 539.117 57.6583C540.793 56.242 541.624 54.4453 541.624 52.2266C541.624 51.4509 541.495 50.7994 541.253 50.2598L541.247 50.2462C541.02 49.6972 540.716 49.2682 540.342 48.9444L540.19 48.8262C539.824 48.559 539.376 48.328 538.84 48.1368C538.215 47.9353 537.58 47.8046 536.937 47.7442L536.921 47.7423C536.264 47.6602 535.507 47.6183 534.649 47.6182ZM532.088 18.7852C530.88 18.7852 529.83 19.4097 528.937 20.8194L528.935 20.8223C528.05 22.1984 527.576 24.2295 527.576 26.9776C527.576 29.8248 528.068 32.0515 529.01 33.6964C529.943 35.3039 531.126 36.0333 532.568 36.0333H532.632C533.846 36.0333 534.883 35.4245 535.752 34.0626C536.615 32.7089 537.08 30.6781 537.08 27.9053C537.08 25.0564 536.587 22.8289 535.644 21.1837L535.643 21.1817C534.707 19.5294 533.524 18.7852 532.088 18.7852Z" fill="var(--fill-0, black)" stroke="var(--stroke-0, black)" stroke-width="1.02404"/>
<path id="Vector_8" d="M508.276 15.9049C510.797 15.905 513.052 16.666 515.021 18.1871C516.973 19.6956 518.454 21.6679 519.467 24.0895C520.477 26.4827 520.98 29.0794 520.98 31.8727C520.98 34.7315 520.456 37.3934 519.403 39.8512L519.402 39.8531C518.346 42.2938 516.843 44.2652 514.89 45.7525C512.925 47.2486 510.715 48.0015 508.276 48.0016H508.211C505.772 48.0016 503.562 47.2487 501.597 45.7525C499.643 44.2652 498.141 42.2938 497.085 39.8531L497.084 39.8512C496.031 37.3934 495.507 34.7315 495.507 31.8727C495.507 29.0808 495.998 26.4857 496.986 24.0934L496.986 24.0914C498 21.6676 499.493 19.6948 501.468 18.1861C503.458 16.6659 505.733 15.9049 508.276 15.9049ZM508.276 18.4322C506.782 18.4322 505.478 19.0648 504.345 20.3961C503.185 21.76 502.331 23.4394 501.793 25.4459V25.4469C501.251 27.4481 500.979 29.5683 500.979 31.8092C500.979 34.0718 501.252 36.2249 501.794 38.2701C502.332 40.2989 503.187 42.0116 504.35 43.4195C505.485 44.7933 506.788 45.442 508.276 45.442H508.339C509.806 45.442 511.087 44.8035 512.2 43.4518L512.203 43.4488C513.365 42.0628 514.207 40.3833 514.724 38.4C515.245 36.3757 515.507 34.2434 515.507 32.0016C515.507 29.7171 515.235 27.5643 514.693 25.5416L514.692 25.5357C514.175 23.509 513.331 21.8096 512.171 20.4254L512.168 20.4225C511.057 19.0728 509.765 18.4323 508.276 18.4322Z" fill="var(--fill-0, black)" stroke="var(--stroke-0, black)" stroke-width="1.02404"/>
<path id="Vector_9" d="M496.322 3.87261C496.541 3.87262 496.762 3.9238 496.958 4.05425C497.144 4.17779 497.271 4.35017 497.356 4.5396H497.357C497.36 4.54583 497.361 4.5528 497.364 4.55913C497.366 4.56339 497.37 4.56756 497.371 4.57183H497.37C497.545 4.94576 497.603 5.50005 497.603 6.14409C497.603 6.45336 497.591 6.85708 497.57 7.35113C497.548 7.84172 497.538 8.17256 497.538 8.3521V8.36773C497.474 10.4935 497.323 12.6303 497.087 14.7769C497.032 15.513 496.918 16.1227 496.716 16.565C496.51 17.018 496.149 17.4087 495.586 17.4087C495.332 17.4087 495.088 17.3333 494.882 17.1685L494.838 17.1334L494.803 17.0884C494.659 16.9082 494.55 16.6549 494.46 16.3863C494.375 16.1305 494.301 15.9063 494.237 15.7144L494.229 15.69L494.223 15.6636C494.179 15.4659 494.114 15.1521 494.029 14.7251C493.986 14.5118 493.948 14.3246 493.916 14.1646C493.886 14.0136 493.861 13.8863 493.84 13.7828C493.63 12.9018 493.414 12.2066 493.195 11.688L493.189 11.6724C492.994 11.1662 492.696 10.6282 492.289 10.0582L492.284 10.0513C491.916 9.51706 491.432 9.13343 490.822 8.89312L490.81 8.88823C490.185 8.62343 489.405 8.48006 488.45 8.48003H485.954C485.596 8.48003 485.33 8.50115 485.144 8.5357C485.01 8.56053 484.951 8.58572 484.935 8.59331C484.925 8.60919 484.905 8.65118 484.884 8.73687C484.854 8.85958 484.834 9.03758 484.834 9.28081V42.1773C484.834 43.4357 484.985 44.2414 485.217 44.6793L485.298 44.8052C485.478 45.046 485.765 45.226 486.217 45.313L486.457 45.3492L486.476 45.3511L486.493 45.3541C486.715 45.3943 486.992 45.4353 487.325 45.4771C487.672 45.5179 487.957 45.5608 488.171 45.606C488.406 45.6309 488.64 45.6788 488.872 45.7476C489.119 45.7972 489.388 45.8944 489.579 46.1041H489.58C489.782 46.3056 489.89 46.5636 489.89 46.8501C489.89 47.0742 489.852 47.3058 489.739 47.5123C489.621 47.7261 489.439 47.8793 489.215 47.9644L489.216 47.9654C489.215 47.9659 489.213 47.9659 489.212 47.9664C489.208 47.9677 489.205 47.9699 489.201 47.9712L489.2 47.9703C488.893 48.0891 488.475 48.1294 488.002 48.1294C487.83 48.1294 487.11 48.0849 485.887 48.0005C484.662 47.9161 483.394 47.8736 482.082 47.8736C480.577 47.8736 479.256 47.9154 478.119 47.9996L478.12 48.0005C477.004 48.0848 476.326 48.1294 476.13 48.1294C475.678 48.1294 475.252 48.0633 474.925 47.8619C474.557 47.6354 474.369 47.2733 474.369 46.8501C474.369 46.6013 474.433 46.3565 474.585 46.1441C474.729 45.9429 474.927 45.8058 475.145 45.7144V45.7134C475.373 45.6067 475.687 45.535 476.044 45.48C476.228 45.4517 476.434 45.426 476.662 45.4039L477.411 45.3462C478.4 45.2842 478.807 45.0236 478.948 44.774C479.04 44.6123 479.132 44.317 479.198 43.8433C479.263 43.3792 479.298 42.7827 479.298 42.0494V9.08843C479.298 8.87873 479.263 8.7634 479.235 8.70757C479.214 8.66741 479.197 8.65567 479.168 8.64605L479.148 8.63921L479.128 8.6314C479.066 8.60495 478.864 8.5593 478.443 8.52691C478.045 8.49634 477.511 8.48004 476.834 8.48003C475.109 8.48003 473.812 8.91407 472.886 9.72515L472.887 9.72613C471.933 10.581 471.063 11.847 470.292 13.5552L470.289 13.563H470.288C470.129 13.9019 469.923 14.4264 469.668 15.147C469.416 15.8614 469.179 16.4127 468.957 16.7662C468.754 17.1211 468.429 17.4731 467.938 17.4732C467.558 17.4732 467.161 17.35 466.927 16.9761L466.92 16.9654L466.914 16.9537C466.816 16.7774 466.765 16.5638 466.735 16.3531C466.703 16.1341 466.69 15.8759 466.69 15.5845C466.69 15.4406 466.734 15.1731 466.794 14.8501C466.857 14.5135 466.897 14.2615 466.916 14.0884L466.917 14.0796C467.302 11.0635 467.71 8.55165 468.141 6.54839L468.144 6.53667C468.327 5.76976 468.515 5.16243 468.713 4.73687C468.811 4.52584 468.925 4.33003 469.062 4.18023C469.196 4.03311 469.409 3.87261 469.697 3.87261L469.829 3.87847C470.455 3.93918 470.869 4.43185 471.135 5.02593C471.166 5.07609 471.186 5.1203 471.197 5.14605C471.206 5.17009 471.212 5.19576 471.22 5.22027C471.243 5.25664 471.264 5.2931 471.283 5.32866C471.322 5.38592 471.345 5.43771 471.357 5.46636C471.366 5.49011 471.371 5.51539 471.379 5.5396C471.387 5.55284 471.397 5.56549 471.405 5.57866C471.441 5.61192 471.474 5.64613 471.501 5.68023C471.533 5.70366 471.563 5.72875 471.592 5.75445C471.618 5.76936 471.645 5.78457 471.672 5.80132C471.718 5.81393 471.763 5.82699 471.805 5.84038L471.806 5.83941C471.809 5.84025 471.804 5.8395 471.808 5.84038H471.81L471.811 5.84136H471.814L471.829 5.84527C471.831 5.8458 471.836 5.84669 471.838 5.84722L471.839 5.8482H471.842V5.84917C471.844 5.84962 471.842 5.84873 471.844 5.84917L471.846 5.85015H471.849L471.85 5.85113L471.869 5.85601C471.884 5.85956 471.887 5.86028 471.902 5.86382C471.907 5.86514 471.901 5.86355 471.905 5.8648C471.907 5.86521 471.906 5.8645 471.907 5.8648C471.909 5.86521 471.908 5.86545 471.909 5.86577L471.913 5.86675H471.915C471.917 5.86719 471.915 5.86728 471.917 5.86773H471.918L471.934 5.87163C471.942 5.87368 471.958 5.8774 471.966 5.87945C472.008 5.89005 471.955 5.87676 471.997 5.88726L472 5.88823H492.45C493.221 5.88822 493.787 5.80226 494.175 5.65679C494.555 5.51429 494.721 5.33378 494.79 5.15679L494.798 5.1353L494.809 5.11577C494.82 5.09413 494.844 5.03685 494.887 4.93023L494.903 4.89214L494.923 4.85698C494.988 4.74948 495.021 4.69044 495.032 4.66753L495.07 4.59331L495.128 4.53472C495.145 4.5174 495.182 4.47521 495.24 4.39702C495.299 4.31896 495.396 4.20249 495.527 4.12066V4.1187C495.633 4.04791 495.748 3.99826 495.866 3.96441C496.013 3.90187 496.167 3.87261 496.322 3.87261Z" fill="var(--fill-0, black)" stroke="var(--stroke-0, black)" stroke-width="1.02404"/>
<path id="Vector_10" d="M449.36 41.3462C450.327 41.3462 451.121 41.738 451.688 42.5083L451.879 42.7818C452.293 43.433 452.496 44.1754 452.496 44.9937C452.496 45.9472 452.232 46.8021 451.693 47.5367L451.688 47.5435C451.117 48.2962 450.323 48.6743 449.36 48.6743C448.408 48.6743 447.619 48.2764 447.034 47.5132L447.028 47.5064L447.022 47.4986C446.492 46.7507 446.225 45.9106 446.225 44.9937V44.9302C446.225 44.013 446.492 43.1879 447.032 42.4761C447.603 41.7235 448.398 41.3462 449.36 41.3462Z" fill="var(--fill-0, black)" stroke="var(--stroke-0, black)" stroke-width="1.02404"/>
<path id="Vector_11" d="M434.89 16.5772C437.139 16.5772 438.92 16.8875 440.167 17.5694L440.409 17.71L440.432 17.7247L440.452 17.7413C440.665 17.9068 440.787 18.1523 440.864 18.3829C440.944 18.6229 440.997 18.913 441.031 19.2403L441.061 19.6319C441.087 20.102 441.099 20.8059 441.099 21.7296V23.5372L441.098 23.5528C441.065 24.0919 440.991 24.5509 440.852 24.8907C440.717 25.2225 440.442 25.6016 439.946 25.6016C439.544 25.6016 439.201 25.4223 438.976 25.085L438.97 25.0753L438.963 25.0645C438.805 24.8018 438.598 24.2955 438.345 23.5997L438.344 23.5958C438.092 22.8838 437.853 22.2704 437.626 21.754L437.464 21.4239C437.078 20.6825 436.643 20.1358 436.172 19.7618L436.164 19.7559L436.157 19.7501C435.676 19.3374 435.005 19.1046 434.09 19.1046C432.774 19.1046 431.693 19.5037 430.814 20.2872C429.941 21.0658 429.514 22.0154 429.514 23.169C429.514 23.4483 429.541 23.7286 429.596 24.0098C429.676 24.2908 429.756 24.5384 429.835 24.754C429.897 24.924 430.015 25.1338 430.208 25.3848H430.207C430.424 25.6424 430.602 25.8726 430.739 26.0723C430.853 26.2003 431.058 26.3832 431.377 26.6231L431.853 26.9678C431.988 27.0689 432.099 27.1562 432.183 27.2286C432.298 27.3264 432.56 27.5072 433.002 27.7813C433.464 28.0336 433.774 28.2054 433.928 28.293C434.075 28.377 434.414 28.5673 434.948 28.8663H434.947C435.438 29.1218 435.782 29.3094 435.948 29.4161H435.949C436.936 29.9955 437.76 30.5262 438.418 31.0079C439.11 31.4991 439.817 32.1179 440.538 32.8604H440.537C441.287 33.6118 441.847 34.4798 442.214 35.461C442.603 36.4464 442.794 37.5359 442.794 38.7218C442.794 41.7682 441.787 44.2215 439.74 46.0186C437.711 47.8002 435.119 48.6739 432.01 48.6739C430.315 48.6739 428.683 48.4208 427.116 47.9132V47.9122C426.799 47.8205 426.424 47.6888 425.996 47.5177L425.975 47.5098L425.957 47.5001C425.61 47.3267 425.387 47.0019 425.24 46.6446C425.092 46.2833 424.996 45.8296 424.94 45.3038L424.937 45.2774V45.2501C424.937 45.1262 424.935 44.9353 424.93 44.6768L424.906 43.6954C424.885 42.8819 424.874 42.1835 424.874 41.6016C424.874 40.2232 424.925 39.2383 425.047 38.7042L425.049 38.6934L425.052 38.6827C425.127 38.408 425.24 38.146 425.423 37.9454C425.62 37.7288 425.882 37.6017 426.185 37.6016C426.436 37.6016 426.696 37.6769 426.899 37.88C427 37.9716 427.069 38.0797 427.116 38.1729C427.169 38.279 427.21 38.3986 427.246 38.5235C427.337 38.7546 427.416 39.0035 427.482 39.2696C427.544 39.5182 427.65 39.907 427.799 40.4395C427.944 40.9371 428.11 41.4352 428.297 41.9337L428.303 41.9493C428.796 43.3989 429.443 44.4374 430.218 45.1114C430.982 45.777 431.901 46.1143 433.002 46.1143C434.508 46.1143 435.709 45.6521 436.647 44.752C437.58 43.8579 438.058 42.6858 438.058 41.1856C438.058 40.6544 437.989 40.1591 437.854 39.6973L437.853 39.6915C437.707 39.1704 437.564 38.7426 437.425 38.4044C437.311 38.1286 437.074 37.7896 436.672 37.3878L436.663 37.378C436.26 36.9534 435.961 36.6566 435.764 36.4786L435.743 36.46L435.725 36.4405C435.588 36.2878 435.242 36.0226 434.62 35.6368C433.995 35.2488 433.623 35.0278 433.477 34.9552L433.455 34.9444L433.434 34.9317C433.275 34.8318 432.852 34.5835 432.154 34.1817C431.061 33.6031 430.204 33.1152 429.589 32.7198L429.582 32.7159C428.978 32.3136 428.275 31.7517 427.476 31.0391L427.472 31.0343L427.466 31.0294C426.647 30.2564 426.037 29.3736 425.645 28.3819C425.255 27.3935 425.065 26.2713 425.065 25.0255V24.961C425.065 22.303 426.033 20.2012 427.99 18.7276C429.904 17.2867 432.213 16.5773 434.89 16.5772Z" fill="var(--fill-0, black)" stroke="var(--stroke-0, black)" stroke-width="1.02404"/>
<path id="Vector_12" d="M420.736 42.5616C420.736 43.751 420.875 44.5161 421.088 44.9366C421.279 45.2575 421.632 45.4859 422.282 45.5401H422.283C423.019 45.6031 423.608 45.7012 423.977 45.8673C423.979 45.8683 423.982 45.8692 423.985 45.8702C423.987 45.8711 423.989 45.8722 423.99 45.8731H423.99C424.2 45.9654 424.393 46.1018 424.532 46.2999C424.675 46.5047 424.736 46.7393 424.736 46.9776C424.736 47.3328 424.596 47.6636 424.282 47.88C424.003 48.0724 423.648 48.1299 423.296 48.13C423.157 48.13 422.87 48.1053 422.474 48.0635L422.471 48.0626C422.102 48.0215 421.537 47.9801 420.772 47.9376H420.771C420.037 47.8956 419.172 47.8741 418.176 47.8741C416.993 47.8741 415.942 47.9155 415.022 47.9991L415.023 48.0001C414.123 48.0838 413.566 48.1299 413.407 48.13C413.032 48.13 412.659 48.066 412.367 47.8594C412.044 47.63 411.904 47.2847 411.904 46.9141C411.904 46.4766 412.155 46.1533 412.488 45.9444C412.802 45.747 413.225 45.6239 413.709 45.545L413.727 45.5421L413.745 45.5401C414.642 45.4585 415.086 45.233 415.273 45.002C415.488 44.712 415.648 44.141 415.648 43.17V26.1768C415.648 24.3694 415.247 23.0643 414.52 22.1866C413.614 21.1115 412.29 20.545 410.463 20.545C408.58 20.545 407.024 21.1511 405.76 22.3555L405.751 22.3643C404.437 23.5596 403.807 24.9202 403.807 26.4649V43.2335C403.807 44.1878 403.936 44.7512 404.106 45.0294C404.256 45.2441 404.618 45.4613 405.396 45.5411H405.4C405.599 45.5632 405.85 45.5957 406.152 45.6387H406.151C406.494 45.6818 406.784 45.7262 407.017 45.7716C407.241 45.8153 407.447 45.8661 407.599 45.9337L407.598 45.9346C407.801 46.0198 407.968 46.163 408.078 46.3614C408.186 46.5558 408.223 46.7713 408.223 46.9776C408.223 47.3328 408.083 47.6636 407.77 47.88C407.491 48.0724 407.136 48.1299 406.783 48.13C406.603 48.13 406.3 48.1059 405.898 48.0635L405.895 48.0626C405.527 48.0217 404.932 47.9802 404.101 47.9376H404.1C403.301 47.8955 402.318 47.8741 401.151 47.8741C400.054 47.8741 399.079 47.9167 398.225 48.0001C397.37 48.0835 396.842 48.13 396.702 48.13C396.269 48.1299 395.856 48.0625 395.536 47.8555C395.179 47.6236 395.007 47.2609 395.007 46.8497C395.007 46.4349 395.248 46.1259 395.545 45.918C395.847 45.6857 396.207 45.5661 396.6 45.5391L396.976 45.4991C397.795 45.3859 398.21 45.1379 398.389 44.8702C398.505 44.6963 398.615 44.4074 398.695 43.9669C398.773 43.532 398.815 42.9805 398.815 42.3057V24.6729C398.815 24.1449 398.783 23.7408 398.728 23.4493C398.7 23.3043 398.669 23.1977 398.638 23.1231C398.623 23.0865 398.609 23.0604 398.598 23.043C398.593 23.0346 398.588 23.0284 398.585 23.0245C398.583 23.0219 398.582 23.0203 398.581 23.0196L398.566 23.004L398.552 22.9884C398.529 22.9609 398.438 22.8853 398.19 22.8116C397.951 22.7409 397.618 22.6869 397.179 22.6563L397.176 22.6553C396.628 22.6132 396.193 22.5576 395.933 22.4708L395.899 22.4591L395.865 22.4434C395.7 22.3607 395.556 22.2352 395.458 22.0635C395.362 21.895 395.326 21.7117 395.326 21.5372C395.326 21.1309 395.6 20.8354 395.858 20.6407C396.126 20.438 396.495 20.2535 396.938 20.0792L397.575 19.7764C399.03 19.0592 400.259 18.2676 401.266 17.4044L401.268 17.4024C401.549 17.1644 401.784 16.9776 401.967 16.8477C402.058 16.7834 402.145 16.7254 402.227 16.6817C402.282 16.6522 402.424 16.5772 402.591 16.5772L402.709 16.5841C402.828 16.5989 402.946 16.6367 403.057 16.7052C403.203 16.7954 403.307 16.921 403.378 17.0538C403.513 17.3041 403.551 17.6144 403.551 17.921V20.6505C403.565 20.8876 403.586 21.0671 403.61 21.1973C403.644 21.1799 403.682 21.1597 403.724 21.1358C403.96 20.9773 404.337 20.6939 404.862 20.2745L406.147 19.2462L406.158 19.2374L406.169 19.2296C408.351 17.702 410.417 16.8966 412.352 16.8966C414.626 16.8966 416.555 17.5929 418.105 18.9971L418.409 19.2872L418.418 19.295H418.417C419.917 20.8641 420.67 23.0499 420.736 25.7813V42.5616Z" fill="var(--fill-0, black)" stroke="var(--stroke-0, black)" stroke-width="1.02404"/>
<path id="Vector_13" d="M384.757 16.5772C387.56 16.5772 389.849 17.5826 391.575 19.6016H391.576C393.318 21.6149 394.165 24.2619 394.165 27.4893C394.165 28.3368 394.149 29.0239 394.116 29.546C394.085 30.0433 394.035 30.4565 393.94 30.7091C393.815 31.0432 393.554 31.2609 393.247 31.3868C392.952 31.5076 392.598 31.5538 392.213 31.5538H378.837C378.528 31.5538 378.289 31.5764 378.112 31.6143C377.931 31.6533 377.847 31.7008 377.816 31.7257C377.766 31.7673 377.652 31.9272 377.652 32.4171C377.652 36.2342 378.418 39.263 379.904 41.544L380.189 41.9542C381.643 43.9398 383.478 44.8975 385.717 44.8975C387.166 44.8975 388.344 44.6147 389.277 44.0782C390.205 43.5444 390.923 42.7409 391.428 41.6436L391.432 41.6368L391.435 41.629C391.536 41.4278 391.637 41.2038 391.74 40.9571L391.747 40.9405L391.755 40.9249C391.881 40.6722 391.972 40.4796 392.03 40.3438C392.102 40.1757 392.186 40.009 392.28 39.8438C392.372 39.6838 392.474 39.5293 392.587 39.4161L392.612 39.3897L392.642 39.3682C392.793 39.2546 392.984 39.17 393.205 39.17L393.32 39.1768C393.436 39.1907 393.553 39.2267 393.663 39.2921C393.808 39.3787 393.915 39.5005 393.988 39.6319C394.126 39.8791 394.165 40.1841 394.165 40.4815C394.165 40.8705 394.064 41.3365 393.892 41.8585C393.717 42.3872 393.459 43.0052 393.123 43.71L393.109 43.7374C392.275 45.2476 391.101 46.4547 389.596 47.3536L389.594 47.3546C388.106 48.2334 386.491 48.6739 384.757 48.6739C380.919 48.6739 377.833 47.2337 375.555 44.3516L375.554 44.3497C373.29 41.465 372.181 37.7395 372.181 33.2178C372.181 30.5068 372.538 28.0611 373.263 25.8878C373.938 23.8609 374.833 22.1907 375.961 20.8975L376.19 20.6436C377.401 19.3232 378.733 18.3117 380.184 17.6192L380.186 17.6173C381.66 16.9253 383.185 16.5772 384.757 16.5772ZM384.276 19.1046C382.462 19.1047 380.944 19.9301 379.703 21.67L379.704 21.671C378.469 23.4322 377.845 25.5033 377.845 27.9053V27.9698C377.845 28.4327 377.964 28.5647 378.025 28.6055C378.096 28.6347 378.277 28.6816 378.63 28.7159C378.991 28.751 379.474 28.7696 380.085 28.7696C381.074 28.7696 382.311 28.7276 383.798 28.6427L384.661 28.5821C385.482 28.5178 386.178 28.4411 386.75 28.3516C387.507 28.2332 388.006 28.0979 388.29 27.9649C388.831 27.6517 389.205 26.9368 389.205 25.5372C389.205 23.5688 388.744 22.0219 387.867 20.8526L387.861 20.8448C387.027 19.6884 385.855 19.1046 384.276 19.1046Z" fill="var(--fill-0, black)" stroke="var(--stroke-0, black)" stroke-width="1.02404"/>
<path id="Vector_14" d="M352.835 16.585C352.958 16.6017 353.08 16.6443 353.192 16.7188C353.338 16.8161 353.438 16.9486 353.506 17.0841C353.634 17.3403 353.672 17.6607 353.672 17.9854V20.546C353.702 20.5232 353.735 20.4999 353.769 20.4727C354.043 20.2544 354.427 19.9191 354.926 19.463L354.936 19.4542L354.946 19.4464C356.951 17.7901 358.856 16.8966 360.648 16.8966C363.712 16.8966 366.297 18.4531 368.394 21.4327L368.59 21.7149C370.584 24.6627 371.561 28.4139 371.561 32.9298C371.561 37.4739 370.44 41.2502 368.159 44.2178L368.158 44.2198C365.869 47.1749 362.917 48.6738 359.336 48.6739C358.126 48.6739 356.658 48.3673 354.947 47.7823L354.934 47.7784L354.921 47.7735C354.498 47.6042 354.169 47.4796 353.931 47.3985C353.868 47.3771 353.812 47.3613 353.765 47.3468C353.748 47.5233 353.736 47.8094 353.736 48.2257V56.9307C353.736 58.1034 353.943 58.7307 354.2 59.005C354.462 59.2634 355.021 59.512 355.987 59.6827L356.429 59.751L356.439 59.752L356.449 59.754C356.811 59.818 357.055 59.86 357.18 59.8809L357.208 59.8858L357.237 59.8946C357.482 59.9649 357.695 60.1011 357.874 60.2803H357.873C358.137 60.5221 358.248 60.8464 358.248 61.1866C358.248 61.3907 358.194 61.592 358.073 61.7696C357.954 61.9432 357.791 62.0653 357.617 62.1505C357.282 62.314 356.844 62.3702 356.36 62.3702C356.068 62.3702 355.449 62.3127 354.541 62.2071C353.645 62.1241 352.683 62.0821 351.656 62.0821C350.689 62.0821 349.645 62.1245 348.526 62.2091C347.435 62.3138 346.737 62.3701 346.472 62.3702C346.008 62.3702 345.581 62.3141 345.254 62.1466C345.083 62.059 344.926 61.9338 344.813 61.7598C344.698 61.5832 344.648 61.3857 344.648 61.1866C344.648 60.8078 344.804 60.4803 345.085 60.2335C345.348 60.0023 345.702 59.856 346.095 59.7608L346.111 59.7569L346.127 59.754C346.782 59.6397 347.287 59.5082 347.654 59.3653C348.033 59.2174 348.205 59.0799 348.268 58.9942L348.277 58.9825L348.286 58.9708C348.357 58.8865 348.458 58.6681 348.534 58.2208C348.608 57.7911 348.648 57.2145 348.648 56.4825V24.7374C348.648 24.3856 348.622 24.1081 348.578 23.8975C348.534 23.6833 348.476 23.5687 348.434 23.5137L348.42 23.4962L348.409 23.4776C348.325 23.3484 348.053 23.1448 347.389 22.9581L347.377 22.9552L347.366 22.9512C347.33 22.9394 347.268 22.9227 347.171 22.9034L347.136 22.8966L347.103 22.8848C346.669 22.7331 346.319 22.5939 346.063 22.4688C345.936 22.4067 345.818 22.3413 345.72 22.2716C345.64 22.2143 345.499 22.104 345.425 21.9307L345.383 21.8341V21.5372C345.383 21.4196 345.403 21.2823 345.47 21.1485L345.484 21.1192L345.486 21.1163L345.534 21.0206C345.585 20.9176 345.654 20.8306 345.726 20.7589C345.738 20.7469 345.745 20.7393 345.755 20.7286C345.768 20.7156 345.77 20.7148 345.782 20.7032L345.785 20.6993C345.787 20.6978 345.785 20.6993 345.786 20.6983L345.793 20.6915C345.802 20.6829 345.795 20.6891 345.803 20.6807C345.827 20.6567 345.799 20.6858 345.822 20.6632C345.883 20.6016 345.966 20.5444 346.028 20.503L346.054 20.4854L346.082 20.4708C346.131 20.4467 346.179 20.4236 346.225 20.4053C346.235 20.4014 346.246 20.3979 346.258 20.3936C346.279 20.3818 346.296 20.3726 346.307 20.3673C346.357 20.3424 346.414 20.3178 346.473 20.294C346.496 20.2849 346.515 20.2763 346.531 20.2696C346.533 20.2685 346.535 20.2667 346.537 20.2657L346.556 20.2481L346.636 20.211C348.738 19.213 350.175 18.342 350.992 17.6046L351.026 17.5743L351.065 17.5509C351.214 17.4575 351.353 17.3551 351.483 17.2442L351.495 17.2335L351.508 17.2237C351.593 17.1597 351.669 17.1037 351.733 17.0557L351.893 16.9356C352 16.8553 352.111 16.7845 352.227 16.7266V16.7276C352.35 16.6573 352.521 16.5772 352.712 16.5772L352.835 16.585ZM359.4 20.4815C357.668 20.4816 356.266 21.0435 355.154 22.1553C354.192 23.1169 353.736 24.1747 353.736 25.3448V40.546C353.736 42.6446 354.202 44.0902 355.035 44.9923L355.206 45.1651L355.212 45.17L355.218 45.1759C356.064 46.0215 357.214 46.4659 358.728 46.4659C360.882 46.4659 362.641 45.3969 364.019 43.128V43.127C365.42 40.8325 366.153 37.4328 366.153 32.8653V32.8018C366.153 28.9692 365.508 25.9613 364.265 23.7393L364.263 23.7344C363.053 21.5163 361.436 20.4815 359.4 20.4815Z" fill="var(--fill-0, black)" stroke="var(--stroke-0, black)" stroke-width="1.02404"/>
<path id="Vector_15" d="M326.106 16.585C326.229 16.6017 326.351 16.6443 326.462 16.7188C326.608 16.8161 326.709 16.9486 326.777 17.0841C326.905 17.3403 326.943 17.6607 326.943 17.9854V20.546C326.973 20.5232 327.005 20.4999 327.04 20.4727C327.314 20.2544 327.698 19.9191 328.197 19.463L328.207 19.4542L328.216 19.4464C330.221 17.7901 332.127 16.8966 333.918 16.8966C336.983 16.8966 339.567 18.4531 341.665 21.4327L341.861 21.7149C343.855 24.6627 344.832 28.4139 344.832 32.9298C344.832 37.4739 343.71 41.2502 341.429 44.2178L341.428 44.2198C339.14 47.1749 336.188 48.6738 332.607 48.6739C331.397 48.6739 329.929 48.3673 328.217 47.7823L328.205 47.7784L328.192 47.7735C327.769 47.6042 327.44 47.4796 327.202 47.3985C327.139 47.3771 327.083 47.3613 327.036 47.3468C327.019 47.5233 327.006 47.8094 327.006 48.2257V56.9307C327.006 58.1034 327.214 58.7307 327.47 59.005C327.733 59.2634 328.292 59.512 329.257 59.6827L329.7 59.751L329.71 59.752L329.719 59.754C330.082 59.818 330.325 59.86 330.451 59.8809L330.479 59.8858L330.507 59.8946C330.753 59.9649 330.966 60.1011 331.145 60.2803H331.144C331.408 60.5221 331.519 60.8464 331.519 61.1866C331.519 61.3907 331.465 61.592 331.343 61.7696C331.225 61.9432 331.062 62.0653 330.887 62.1505C330.552 62.314 330.114 62.3702 329.63 62.3702C329.339 62.3702 328.72 62.3127 327.812 62.2071C326.916 62.1241 325.954 62.0821 324.926 62.0821C323.96 62.0821 322.916 62.1245 321.796 62.2091C320.706 62.3138 320.008 62.3701 319.743 62.3702C319.278 62.3702 318.852 62.3141 318.525 62.1466C318.354 62.059 318.197 61.9338 318.084 61.7598C317.969 61.5832 317.919 61.3857 317.918 61.1866C317.918 60.8078 318.075 60.4803 318.356 60.2335C318.619 60.0023 318.973 59.856 319.366 59.7608L319.381 59.7569L319.398 59.754C320.053 59.6397 320.558 59.5082 320.924 59.3653C321.304 59.2174 321.476 59.0799 321.539 58.9942L321.547 58.9825L321.557 58.9708C321.627 58.8865 321.729 58.6681 321.805 58.2208C321.878 57.7911 321.918 57.2145 321.918 56.4825V24.7374C321.918 24.3856 321.893 24.1081 321.849 23.8975C321.805 23.6833 321.747 23.5687 321.705 23.5137L321.691 23.4962L321.679 23.4776C321.596 23.3484 321.324 23.1448 320.66 22.9581L320.648 22.9552L320.636 22.9512C320.601 22.9394 320.539 22.9227 320.442 22.9034L320.407 22.8966L320.374 22.8848C319.94 22.7331 319.59 22.5939 319.334 22.4688C319.206 22.4067 319.088 22.3413 318.991 22.2716C318.911 22.2143 318.77 22.104 318.696 21.9307L318.654 21.8341V21.5372C318.654 21.4196 318.674 21.2823 318.741 21.1485L318.754 21.1192L318.756 21.1163L318.804 21.0206C318.856 20.9176 318.925 20.8306 318.997 20.7589C319.009 20.7469 319.015 20.7393 319.026 20.7286C319.039 20.7156 319.041 20.7148 319.052 20.7032L319.056 20.6993C319.058 20.6978 319.056 20.6993 319.057 20.6983L319.064 20.6915C319.073 20.6829 319.065 20.6891 319.074 20.6807C319.098 20.6567 319.07 20.6858 319.092 20.6632C319.154 20.6016 319.236 20.5444 319.298 20.503L319.325 20.4854L319.353 20.4708C319.401 20.4467 319.45 20.4236 319.496 20.4053C319.505 20.4014 319.517 20.3979 319.529 20.3936C319.55 20.3818 319.567 20.3726 319.578 20.3673C319.627 20.3424 319.684 20.3178 319.744 20.294C319.766 20.2849 319.786 20.2763 319.801 20.2696C319.804 20.2685 319.806 20.2667 319.808 20.2657L319.827 20.2481L319.907 20.211C322.009 19.213 323.446 18.342 324.263 17.6046L324.296 17.5743L324.335 17.5509C324.485 17.4575 324.624 17.3551 324.753 17.2442L324.766 17.2335L324.779 17.2237C324.864 17.1597 324.939 17.1037 325.003 17.0557L325.164 16.9356C325.271 16.8553 325.382 16.7845 325.498 16.7266V16.7276C325.62 16.6573 325.792 16.5772 325.983 16.5772L326.106 16.585ZM332.67 20.4815C330.938 20.4816 329.536 21.0435 328.424 22.1553C327.463 23.1169 327.006 24.1747 327.006 25.3448V40.546C327.006 42.6446 327.473 44.0902 328.306 44.9923L328.477 45.1651L328.483 45.17L328.489 45.1759C329.334 46.0215 330.485 46.4659 331.999 46.4659C334.153 46.4659 335.912 45.3969 337.29 43.128V43.127C338.691 40.8325 339.423 37.4328 339.423 32.8653V32.8018C339.423 28.9692 338.779 25.9613 337.536 23.7393L337.534 23.7344C336.324 21.5163 334.707 20.4815 332.67 20.4815Z" fill="var(--fill-0, black)" stroke="var(--stroke-0, black)" stroke-width="1.02404"/>
<path id="Vector_16" d="M308.121 16.5772C310.388 16.5773 312.097 16.983 313.026 17.9747C313.82 18.7681 314.136 20.1476 314.136 21.921V41.6016C314.136 42.5889 314.294 43.2429 314.539 43.6348C314.759 43.9865 315.069 44.1622 315.545 44.1622C315.953 44.1622 316.27 44.0669 316.518 43.9024C316.768 43.7374 316.986 43.4785 317.157 43.0909C317.341 42.6287 317.522 42.2509 317.705 41.9796C317.797 41.8425 317.904 41.7115 318.028 41.6104C318.152 41.5097 318.33 41.4103 318.552 41.4102L318.681 41.418C318.81 41.4348 318.937 41.478 319.054 41.5538C319.208 41.6533 319.318 41.79 319.392 41.9346C319.534 42.209 319.577 42.556 319.577 42.9141C319.577 43.9539 318.965 45.1177 317.924 46.376L317.921 46.38C316.8 47.7106 315.356 48.3858 313.625 48.3858C313.048 48.3858 312.512 48.2777 312.029 48.0489C311.601 47.8462 311.243 47.629 310.978 47.3907C310.696 47.1367 310.448 46.7617 310.222 46.3106L310.216 46.2979L310.21 46.2833L309.826 45.3878L309.809 45.3497L309.8 45.3096C309.759 45.1477 309.677 44.841 309.552 44.3848C309.462 44.149 309.382 43.9869 309.316 43.8829C309.26 43.925 309.191 43.9814 309.108 44.0577L309.106 44.0596C308.859 44.2866 308.502 44.6322 308.035 45.0997L308.026 45.1085C307.545 45.5675 307.072 45.9748 306.607 46.3292C304.709 47.8877 302.551 48.6739 300.152 48.6739C298.569 48.6739 297.228 48.1203 296.167 47.0118C295.092 45.8896 294.584 44.3628 294.584 42.4981C294.584 40.747 295.188 39.2053 296.382 37.8966C297.533 36.6341 299.484 35.081 302.201 33.2413C302.846 32.7902 303.733 32.1919 304.86 31.4473C306.013 30.6787 306.776 30.1455 307.163 29.8399L307.177 29.8282L307.192 29.8184C308.06 29.2255 308.549 28.7833 308.747 28.4893C308.926 28.2023 309.049 27.7209 309.049 26.9776V23.3614C309.049 21.6489 308.821 20.5467 308.453 19.9503L308.447 19.9405C308.143 19.4241 307.572 19.1046 306.552 19.1046C304.985 19.1046 303.81 19.5948 302.965 20.5343C302.094 21.5035 301.355 22.9414 300.77 24.8848L300.766 24.8995L300.761 24.9132C300.34 26.0668 299.798 26.9669 299.109 27.5577L299.102 27.5645L299.094 27.5704C298.192 28.2875 297.23 28.6728 296.217 28.6729C295.69 28.6729 295.171 28.5764 294.83 28.2354L294.82 28.2257L294.811 28.2159C294.49 27.8583 294.392 27.3341 294.392 26.7852C294.392 25.7649 294.767 24.6704 295.456 23.5147L295.46 23.5089C296.171 22.3526 297.101 21.2601 298.241 20.2296L298.245 20.2257C299.429 19.1753 300.904 18.3146 302.655 17.6358C304.42 16.9305 306.243 16.5772 308.121 16.5772ZM309.011 31.6593C308.94 31.6838 308.852 31.719 308.747 31.7686C308.492 31.8888 308.163 32.0763 307.757 32.337L307.752 32.3399C306.063 33.3952 304.671 34.4226 303.568 35.421L303.552 35.4346C301.164 37.4285 300.056 39.4418 300.056 41.4737V41.5382C300.056 42.6607 300.359 43.4533 300.898 43.9923C301.456 44.55 302.155 44.834 303.032 44.8341C304.341 44.8341 305.768 44.1612 307.318 42.6729L307.327 42.6641C308.047 42.0061 308.49 41.4235 308.706 40.92C308.925 40.4092 309.049 39.7061 309.049 38.7852V32.1612C309.049 31.9301 309.032 31.7676 309.011 31.6593Z" fill="var(--fill-0, black)" stroke="var(--stroke-0, black)" stroke-width="1.02404"/>
<path id="Vector_17" d="M291.501 5.6327C291.879 5.63271 292.249 5.68842 292.54 5.87C292.871 6.07675 293.037 6.40712 293.037 6.78406C293.037 7.36656 292.662 7.76962 292.173 8.01746C291.698 8.25814 291.037 8.40168 290.237 8.4784H290.233C289.528 8.53881 289.181 8.70257 289.034 8.85438C288.9 9.01818 288.781 9.34805 288.781 9.95301V42.5614C288.781 43.6529 288.889 44.3434 289.051 44.7079C289.196 44.9929 289.494 45.2304 290.074 45.3573L290.115 45.3671L290.155 45.3827C290.33 45.4527 290.565 45.5198 290.865 45.58H290.864C291.205 45.6439 291.477 45.6978 291.676 45.7421H291.675C291.942 45.7967 292.191 45.8949 292.406 46.0487C292.697 46.2566 292.845 46.5656 292.845 46.9139C292.845 47.2977 292.688 47.6442 292.353 47.868C292.054 48.0673 291.67 48.1297 291.277 48.1298C290.933 48.1298 290.208 48.0848 289.125 47.9999C288.048 47.9154 287.048 47.8739 286.125 47.8739C285.028 47.8739 284.031 47.9163 283.132 47.9999C282.222 48.0845 281.609 48.1298 281.324 48.1298C280.98 48.1298 280.679 48.1129 280.427 48.0761C280.199 48.0427 279.971 47.9854 279.783 47.8817V47.8837C279.774 47.8788 279.764 47.8731 279.755 47.868C279.753 47.8669 279.751 47.8662 279.749 47.8651V47.8641C279.309 47.6237 279.181 47.1548 279.181 46.7216C279.181 46.5246 279.226 46.3257 279.338 46.1464C279.45 45.9675 279.608 45.8394 279.783 45.7518L279.801 45.744C280.107 45.6048 280.677 45.4784 281.433 45.3524L281.438 45.3514C282.378 45.2051 282.802 44.9527 282.95 44.7362L282.955 44.7294L282.96 44.7216C283.045 44.6068 283.137 44.3939 283.205 44.035C283.272 43.6825 283.309 43.2258 283.309 42.6581V27.3612C283.309 27.1767 283.296 27.0499 283.279 26.9696C283.277 26.9593 283.274 26.9508 283.272 26.9432H283.27C283.212 26.9276 283.112 26.913 282.957 26.913H268.62C268.471 26.913 268.367 26.9249 268.301 26.9393C268.299 26.95 268.296 26.9622 268.294 26.9755C268.278 27.0787 268.269 27.226 268.269 27.4247V42.5614C268.269 43.7138 268.442 44.3901 268.68 44.7206C268.908 45.0162 269.329 45.2528 270.059 45.3495H270.06C270.583 45.4149 271.02 45.4936 271.358 45.5888C271.629 45.6648 271.916 45.771 272.119 45.9472L272.201 46.0272L272.211 46.038L272.22 46.0497C272.394 46.2679 272.46 46.5288 272.46 46.786C272.46 47.1908 272.324 47.5825 271.966 47.8339L271.968 47.8358C271.962 47.8401 271.955 47.8424 271.949 47.8466C271.947 47.8478 271.946 47.8502 271.944 47.8514L271.943 47.8505C271.778 47.9676 271.583 48.0341 271.393 48.0722C271.189 48.1129 270.955 48.1298 270.7 48.1298C270.437 48.1298 269.834 48.0844 268.925 47.9999C268.029 47.9165 266.904 47.8739 265.548 47.8739C264.214 47.8739 263.034 47.915 262.006 47.9989L262.007 47.9999C260.99 48.0847 260.315 48.1298 260.012 48.1298C259.609 48.1298 259.213 48.0243 258.924 47.7255C258.638 47.4298 258.54 47.0312 258.54 46.6259C258.54 46.2675 258.708 45.9725 258.972 45.7616C259.217 45.5656 259.541 45.442 259.896 45.3593L259.916 45.3544L259.938 45.3514C260.646 45.2472 261.198 45.1216 261.605 44.9813C262.025 44.8363 262.228 44.6952 262.309 44.5995L262.314 44.5936L262.318 44.5888C262.419 44.4769 262.528 44.2673 262.608 43.9061C262.688 43.5502 262.732 43.0839 262.732 42.4979V10.785C262.732 10.2426 262.708 9.80765 262.664 9.47547C262.619 9.13137 262.557 8.94314 262.51 8.85926L262.498 8.83778C262.444 8.72956 262.26 8.5549 261.672 8.47645L261.64 8.47156L261.608 8.46278C261.314 8.38438 260.997 8.32513 260.656 8.28504L260.652 8.28406C260.582 8.2753 260.472 8.2622 260.412 8.25477C260.382 8.25104 260.332 8.24451 260.305 8.2411H260.301L260.298 8.24012C260.285 8.23848 260.304 8.24078 260.291 8.23914C260.291 8.23915 260.29 8.23873 260.285 8.23817H260.278L260.253 8.23426H260.247C260.244 8.23388 260.244 8.23363 260.241 8.23328C260.234 8.23238 260.236 8.23223 260.229 8.23133H260.224L260.223 8.23035H260.217L260.215 8.22938H260.207C260.205 8.22911 260.204 8.2284 260.204 8.2284L260.157 8.22254C260.151 8.22179 260.158 8.22233 260.151 8.22156C260.144 8.22064 260.153 8.22254 260.146 8.22156C260.129 8.21945 260.152 8.22174 260.135 8.21961C260.119 8.21766 260.128 8.21861 260.112 8.21668C260.081 8.21281 260.1 8.21558 260.069 8.2118C260.049 8.20928 260.069 8.21133 260.049 8.20887H260.043C260.033 8.20761 260.049 8.20924 260.038 8.20789C260.032 8.20709 260.035 8.20773 260.028 8.20692C259.971 8.19977 260.007 8.20396 259.952 8.19715C259.94 8.19565 259.947 8.19668 259.935 8.1952C259.932 8.19488 259.919 8.19256 259.917 8.19227C259.901 8.19022 259.926 8.19335 259.909 8.19129H259.904C259.903 8.19114 259.902 8.19047 259.9 8.19031C259.899 8.19017 259.898 8.19046 259.897 8.19031C259.888 8.18923 259.901 8.19037 259.893 8.18934C259.881 8.18793 259.895 8.18968 259.885 8.18836L259.875 8.18739C259.702 8.16268 259.53 8.12583 259.359 8.07703L259.328 8.06824L259.298 8.05555C259.106 7.97327 258.909 7.8528 258.771 7.66785L258.742 7.63074L258.722 7.58973C258.626 7.3974 258.604 7.17327 258.604 6.97645C258.604 6.55005 258.776 6.17189 259.144 5.92664C259.475 5.70583 259.908 5.6327 260.364 5.6327C260.749 5.63273 261.536 5.6766 262.705 5.7616L262.704 5.76258C263.895 5.84762 264.809 5.88856 265.452 5.88856C266.138 5.88855 267.042 5.84647 268.166 5.7616C269.296 5.67635 270.103 5.6327 270.572 5.6327C271.029 5.63271 271.461 5.70586 271.792 5.92664C272.16 6.17188 272.332 6.54995 272.332 6.97645C272.332 7.35885 272.198 7.70991 271.901 7.96961L271.898 7.97352C271.695 8.14703 271.465 8.27269 271.208 8.3368L271.183 8.34364L271.156 8.34754C270.995 8.37057 270.69 8.40252 270.253 8.44422L270.181 8.48035H269.963C269.2 8.54189 268.796 8.72718 268.609 8.92664L268.598 8.93836C268.433 9.10345 268.269 9.52444 268.269 10.4003V23.6493C268.269 23.8084 268.281 23.921 268.297 23.996C268.298 24 268.299 24.004 268.3 24.0077C268.367 24.0214 268.471 24.0331 268.62 24.0331H282.957C283.101 24.0331 283.197 24.019 283.256 24.0048C283.261 23.984 283.27 23.957 283.276 23.9218C283.296 23.8062 283.309 23.6428 283.309 23.4247V11.1044C283.309 10.545 283.277 10.0889 283.219 9.73035C283.16 9.36587 283.079 9.13395 282.998 8.99989L282.992 8.99207L282.988 8.98328C282.879 8.78435 282.568 8.55781 281.784 8.47742L281.76 8.47547L281.736 8.47059C281.651 8.45356 281.519 8.43371 281.332 8.41297H281.325C281.165 8.3929 281.049 8.38466 280.973 8.38465H280.909L280.849 8.36903C280.788 8.35392 280.69 8.33565 280.548 8.31531L280.536 8.31336C280.401 8.29077 280.28 8.26683 280.177 8.2411L280.157 8.23621L280.139 8.23035C280.103 8.21853 280.041 8.20184 279.944 8.1825L279.877 8.16883L279.816 8.13856C279.716 8.08855 279.621 8.03524 279.536 7.9784L279.494 7.95008L279.458 7.91492C279.442 7.89923 279.466 7.92185 279.45 7.90614L279.427 7.8827H279.426V7.88172L279.421 7.87684C279.42 7.87584 279.42 7.87686 279.419 7.87586L279.418 7.87489C279.416 7.87236 279.413 7.86862 279.41 7.8661L279.395 7.85047C279.355 7.81121 279.369 7.82619 279.33 7.78699L279.295 7.75086L279.267 7.70887C279.202 7.61219 279.148 7.50714 279.11 7.39442L279.105 7.37586L279.1 7.35633C279.069 7.23174 279.053 7.10481 279.053 6.97645C279.053 6.51647 279.27 6.1393 279.668 5.90906C280.024 5.70346 280.492 5.6327 281.005 5.6327C281.455 5.63272 282.209 5.67736 283.253 5.76258C284.308 5.847 285.287 5.88855 286.189 5.88856C287.35 5.88856 288.434 5.84659 289.442 5.76258C290.462 5.67763 291.156 5.6327 291.501 5.6327Z" fill="var(--fill-0, black)" stroke="var(--stroke-0, black)" stroke-width="1.02404"/>
<path id="Vector_18" d="M238.393 8.76888C238.578 8.76891 238.778 8.80659 238.958 8.9222C239.122 9.02753 239.231 9.17578 239.299 9.33919C239.384 9.50963 239.423 9.72463 239.446 9.92806C239.47 10.146 239.481 10.4125 239.481 10.721V16.3529C239.481 16.8554 239.578 17.0636 239.638 17.1302C239.682 17.1797 239.838 17.2806 240.281 17.2806H243.577C244.109 17.2806 244.609 17.348 244.96 17.5775H244.961C244.967 17.5814 244.974 17.5861 244.98 17.5902C244.984 17.5926 244.988 17.5946 244.991 17.597H244.99C245.406 17.8644 245.529 18.3355 245.529 18.7845C245.529 19.3046 245.394 19.8167 244.967 20.1273L244.965 20.1253C244.773 20.2723 244.536 20.3574 244.297 20.4066C244.043 20.4585 243.747 20.4808 243.418 20.4808H240.153C239.918 20.4808 239.748 20.4988 239.634 20.5247C239.59 20.5346 239.561 20.5448 239.542 20.5521C239.536 20.5724 239.528 20.6006 239.52 20.639C239.497 20.7658 239.481 20.9551 239.481 21.2171V41.9222C239.481 43.0668 239.67 43.8369 239.974 44.307C240.255 44.7388 240.66 44.9622 241.273 44.9622C242.037 44.9622 242.796 44.5173 243.534 43.3997L243.535 43.3978C243.614 43.2794 243.717 43.1166 243.843 42.9066C243.907 42.7999 243.963 42.7063 244.011 42.6263L244.137 42.4163L244.143 42.4056C244.24 42.2613 244.346 42.1187 244.464 41.9779C244.583 41.8344 244.708 41.705 244.838 41.6077C244.989 41.4942 245.18 41.4096 245.401 41.4095C245.658 41.4095 245.947 41.4658 246.174 41.6673C246.412 41.879 246.489 42.1677 246.489 42.4339C246.489 42.7647 246.364 43.2341 246.174 43.7855L246.171 43.7913C245.968 44.3549 245.669 45.0074 245.278 45.7454L245.275 45.7513C244.841 46.5465 244.165 47.2242 243.277 47.7933C242.356 48.3835 241.309 48.6742 240.153 48.6742C238.393 48.6741 236.957 48.1863 235.919 47.1478L235.909 47.138L235.899 47.1263C234.895 45.9999 234.457 44.1529 234.457 41.7298V20.6087C234.457 20.4301 234.416 20.3371 234.38 20.2874C234.345 20.2405 234.279 20.1834 234.131 20.1429L234.112 20.138L234.095 20.1322C233.842 20.0429 233.455 20.0125 232.897 20.0921L232.861 20.097H232.825C232.406 20.097 232 20.0253 231.687 19.8021C231.343 19.556 231.193 19.1858 231.193 18.7845C231.193 18.6076 231.257 18.4457 231.315 18.3284C231.379 18.1997 231.466 18.0621 231.568 17.9193C231.773 17.6329 232.069 17.2819 232.448 16.8704L232.454 16.8636L232.769 16.5267C234.331 14.8206 235.724 12.7866 236.946 10.4212L236.96 10.3939C236.969 10.3751 236.969 10.3759 236.979 10.3558C236.982 10.35 236.996 10.3213 237 10.3138L237.006 10.3021C237.01 10.2927 237.007 10.3012 237.012 10.2913L237.023 10.2679C237.036 10.2431 237.06 10.1936 237.075 10.1634C237.091 10.1311 237.087 10.1396 237.104 10.1058C237.114 10.086 237.109 10.0952 237.119 10.0755L237.127 10.0599C237.133 10.0464 237.129 10.0569 237.136 10.0433C237.276 9.74123 237.409 9.48901 237.535 9.30013C237.599 9.20462 237.669 9.11224 237.747 9.0345C237.818 8.9632 237.934 8.86601 238.093 8.82064L238.112 8.81478L238.133 8.81087L238.293 8.77865L238.343 8.76888H238.393Z" fill="var(--fill-0, black)" stroke="var(--stroke-0, black)" stroke-width="1.02404"/>
<path id="Vector_19" d="M220.526 16.5772C222.794 16.5773 224.503 16.983 225.432 17.9747C226.225 18.7681 226.542 20.1476 226.542 21.921V41.6016C226.542 42.5889 226.699 43.2429 226.944 43.6348C227.164 43.9865 227.474 44.1622 227.95 44.1622C228.359 44.1622 228.675 44.0669 228.924 43.9024C229.173 43.7374 229.391 43.4785 229.563 43.0909C229.746 42.6287 229.927 42.2509 230.11 41.9796C230.203 41.8425 230.309 41.7115 230.434 41.6104C230.558 41.5097 230.736 41.4103 230.958 41.4102L231.087 41.418C231.216 41.4348 231.343 41.478 231.46 41.5538C231.614 41.6533 231.723 41.79 231.798 41.9346C231.94 42.209 231.982 42.556 231.982 42.9141C231.982 43.9539 231.37 45.1177 230.329 46.376L230.326 46.38C229.206 47.7106 227.761 48.3858 226.03 48.3858C225.453 48.3858 224.918 48.2777 224.435 48.0489C224.007 47.8462 223.649 47.629 223.384 47.3907C223.102 47.1367 222.854 46.7617 222.628 46.3106L222.621 46.2979L222.615 46.2833L222.232 45.3878L222.215 45.3497L222.205 45.3096C222.165 45.1477 222.082 44.841 221.958 44.3848C221.867 44.149 221.787 43.9869 221.722 43.8829C221.666 43.925 221.596 43.9814 221.514 44.0577L221.512 44.0596C221.264 44.2866 220.908 44.6322 220.44 45.0997L220.432 45.1085C219.951 45.5675 219.478 45.9748 219.013 46.3292C217.114 47.8877 214.957 48.6739 212.558 48.6739C210.974 48.6739 209.634 48.1203 208.572 47.0118C207.498 45.8896 206.989 44.3628 206.989 42.4981C206.989 40.747 207.593 39.2053 208.787 37.8966C209.939 36.6341 211.89 35.081 214.607 33.2413C215.251 32.7902 216.138 32.1919 217.266 31.4473C218.419 30.6787 219.181 30.1455 219.568 29.8399L219.583 29.8282L219.598 29.8184C220.466 29.2255 220.954 28.7833 221.152 28.4893C221.331 28.2023 221.454 27.7209 221.454 26.9776V23.3614C221.454 21.6489 221.227 20.5467 220.858 19.9503L220.853 19.9405C220.549 19.4241 219.978 19.1046 218.958 19.1046C217.39 19.1046 216.216 19.5948 215.37 20.5343C214.5 21.5035 213.761 22.9414 213.176 24.8848L213.172 24.8995L213.167 24.9132C212.746 26.0668 212.204 26.9669 211.515 27.5577L211.508 27.5645L211.5 27.5704C210.598 28.2875 209.636 28.6728 208.622 28.6729C208.096 28.6729 207.576 28.5764 207.235 28.2354L207.226 28.2257L207.217 28.2159C206.895 27.8583 206.798 27.3341 206.798 26.7852C206.798 25.7649 207.172 24.6704 207.861 23.5147L207.865 23.5089C208.577 22.3526 209.506 21.2601 210.647 20.2296L210.65 20.2257C211.835 19.1753 213.309 18.3146 215.061 17.6358C216.825 16.9305 218.649 16.5772 220.526 16.5772ZM221.417 31.6593C221.346 31.6838 221.258 31.719 221.152 31.7686C220.898 31.8888 220.569 32.0763 220.162 32.337L220.157 32.3399C218.469 33.3952 217.076 34.4226 215.974 35.421L215.958 35.4346C213.57 37.4285 212.462 39.4418 212.462 41.4737V41.5382C212.462 42.6607 212.765 43.4533 213.304 43.9923C213.862 44.55 214.56 44.834 215.438 44.8341C216.747 44.8341 218.173 44.1612 219.724 42.6729L219.732 42.6641C220.452 42.0061 220.896 41.4235 221.111 40.92C221.33 40.4092 221.454 39.7061 221.454 38.7852V32.1612C221.454 31.9301 221.437 31.7676 221.417 31.6593Z" fill="var(--fill-0, black)" stroke="var(--stroke-0, black)" stroke-width="1.02404"/>
<path id="Vector_20" d="M201.796 42.5611C201.796 43.7572 201.947 44.5188 202.177 44.9322C202.337 45.2038 202.642 45.4212 203.207 45.5094L203.468 45.5387L203.479 45.5397C204.127 45.6045 204.659 45.7066 205.019 45.8727C205.227 45.9689 205.413 46.1125 205.545 46.3151C205.677 46.5182 205.732 46.7465 205.732 46.9772C205.732 47.3178 205.609 47.6465 205.309 47.8688C205.037 48.0697 204.693 48.1295 204.356 48.1295C204.322 48.1295 204.132 48.1162 203.849 48.0963C203.544 48.0749 203.093 48.0433 202.495 48.0006C201.311 47.916 200.225 47.8737 199.236 47.8736C198.032 47.8736 196.969 47.915 196.05 47.9986L196.051 47.9996C195.149 48.0835 194.583 48.1295 194.403 48.1295C194.044 48.1295 193.681 48.0636 193.398 47.8492C193.089 47.6145 192.964 47.2711 192.964 46.9137C192.964 46.5168 193.099 46.0811 193.54 45.8766C193.821 45.7373 194.22 45.6321 194.696 45.5455L194.719 45.5416L194.742 45.5397C195.672 45.4571 196.123 45.2273 196.306 44.9967L196.311 44.9899L196.316 44.984C196.535 44.7249 196.708 44.1699 196.708 43.1695V26.0484C196.708 24.2687 196.31 22.9618 195.581 22.0602L195.398 21.8551C194.459 20.8636 193.186 20.3531 191.523 20.3531C189.714 20.3532 188.129 20.9747 186.749 22.235L186.747 22.2359C185.479 23.3849 184.867 24.7233 184.867 26.2731V42.9137C184.867 43.8588 185.06 44.4643 185.356 44.8238C185.632 45.1395 186.233 45.417 187.325 45.5406H187.326C187.889 45.6056 188.387 45.7215 188.713 45.9498H188.712C188.879 46.0502 189.025 46.1842 189.127 46.3609C189.238 46.5534 189.283 46.7653 189.283 46.9772C189.283 47.3324 189.144 47.6631 188.83 47.8795C188.551 48.072 188.196 48.1295 187.844 48.1295C187.664 48.1295 187.361 48.1055 186.958 48.0631L186.955 48.0621C186.587 48.0212 185.992 47.9797 185.161 47.9371H185.16C184.362 47.8951 183.379 47.8736 182.211 47.8736C181.136 47.8737 180.139 47.9159 179.218 47.9996C178.288 48.0842 177.674 48.1295 177.411 48.1295C177.065 48.1295 176.709 48.051 176.44 47.8024C176.162 47.5465 176.067 47.1952 176.067 46.8492C176.068 46.4346 176.309 46.1264 176.606 45.9186C176.908 45.686 177.268 45.5656 177.66 45.5387C178.769 45.455 179.268 45.1796 179.446 44.9059L179.449 44.902C179.565 44.729 179.676 44.4384 179.755 43.9918C179.833 43.5512 179.875 42.9912 179.875 42.3053V7.3922C179.875 7.00093 179.842 6.69909 179.786 6.47618C179.73 6.25067 179.659 6.14016 179.609 6.09044L179.596 6.07677L179.582 6.06115C179.535 6.00691 179.418 5.91811 179.164 5.82579C178.917 5.73576 178.579 5.6565 178.141 5.59532V5.59435C177.622 5.53185 177.212 5.46415 176.976 5.3756L176.95 5.36583L176.926 5.35411C176.76 5.27138 176.617 5.14602 176.519 4.97423C176.422 4.80567 176.387 4.62244 176.387 4.44786C176.387 3.70729 177.004 3.30643 177.663 3.09923L178.522 2.80236C180.438 2.12847 181.743 1.58021 182.465 1.15782L182.474 1.15294L182.483 1.14708C182.851 0.952731 183.154 0.802174 183.39 0.698841C183.507 0.647435 183.615 0.604973 183.71 0.573841C183.792 0.547009 183.912 0.512356 184.035 0.512317C184.492 0.512317 184.691 0.89228 184.763 1.11486C184.841 1.35814 184.867 1.67122 184.867 2.01622V21.1236C184.961 21.0923 185.064 21.0319 185.178 20.9186C187.819 18.2775 190.566 16.8961 193.412 16.8961C195.876 16.8962 197.895 17.6857 199.413 19.2945C200.931 20.8815 201.708 23.0634 201.796 25.776V42.5611Z" fill="var(--fill-0, black)" stroke="var(--stroke-0, black)" stroke-width="1.02404"/>
<path id="Vector_21" d="M177.022 5.6327C177.393 5.63274 177.765 5.72949 178.038 6.01258C178.308 6.29234 178.398 6.66787 178.398 7.0409C178.398 7.49993 178.2 7.89996 177.779 8.12977C177.46 8.30381 177.021 8.41001 176.512 8.47645L176.511 8.47547C176.288 8.50782 176.031 8.64427 175.744 8.97547C175.454 9.31173 175.159 9.82099 174.871 10.5292L174.869 10.535C174.708 10.919 174.331 11.9864 173.731 13.7645L163.558 46.4579C163.366 47.1798 163.175 47.7436 162.977 48.1151C162.858 48.3382 162.694 48.5316 162.476 48.6679C162.256 48.805 162.011 48.8661 161.757 48.8661C161.278 48.8661 160.885 48.6422 160.643 48.2274C160.46 47.9146 160.275 47.4158 160.082 46.7733V46.7723L155.312 31.2489L149.921 46.5311L149.922 46.5321C149.689 47.2313 149.474 47.7681 149.279 48.1141L149.281 48.1151C149.044 48.5592 148.656 48.8661 148.124 48.8661C147.521 48.866 147.107 48.4821 146.862 47.9647L146.857 47.955L146.853 47.9442C146.671 47.5112 146.343 46.5264 145.876 45.0214L135.38 12.1884V12.1874C134.87 10.6994 134.468 9.7224 134.176 9.21668L134.171 9.20594L134.165 9.19617C133.892 8.6694 133.647 8.50478 133.485 8.46864L133.469 8.46473L133.454 8.46082C132.885 8.29662 132.42 8.11862 132.086 7.91981C131.788 7.7421 131.42 7.44224 131.42 6.97645C131.42 6.58337 131.551 6.20873 131.879 5.95008C132.184 5.70992 132.582 5.63275 132.988 5.6327C133.564 5.6327 134.339 5.67675 135.305 5.76258C136.267 5.84807 136.908 5.88856 137.244 5.88856C137.776 5.88854 138.472 5.84708 139.338 5.76258H139.34C140.234 5.67743 140.876 5.6327 141.244 5.6327C141.519 5.6327 141.766 5.64948 141.979 5.68934C142.162 5.72369 142.352 5.78466 142.516 5.89051L142.517 5.88856C142.525 5.89333 142.533 5.90022 142.541 5.90516C142.552 5.91276 142.565 5.91856 142.576 5.92664L142.575 5.92762C142.95 6.16965 143.069 6.58465 143.069 6.97645C143.069 7.42101 142.933 7.90439 142.465 8.13856C142.153 8.29452 141.742 8.34707 141.29 8.35047C140.885 8.39707 140.655 8.51439 140.527 8.64246C140.406 8.76318 140.317 8.95269 140.317 9.28016C140.317 9.42623 140.364 9.73566 140.487 10.2489C140.606 10.7471 140.787 11.398 141.031 12.204L148.931 36.2577L148.935 36.2704C149.189 37.1172 149.407 37.7297 149.589 38.1229C149.615 38.1777 149.64 38.2254 149.662 38.2684C149.779 38.0703 149.92 37.7724 150.077 37.3563L153.339 28.371L153.341 28.3651C153.66 27.5155 153.788 26.9621 153.788 26.6571C153.788 26.6554 153.788 26.6449 153.784 26.6239C153.781 26.5999 153.774 26.5673 153.764 26.5253C153.743 26.4402 153.708 26.3291 153.659 26.1893L153.652 26.1698L153.646 26.1493C153.565 25.8454 153.451 25.4848 153.305 25.0663L153.302 25.0555L153.298 25.0438C153.173 24.6277 153.079 24.2987 153.013 24.0595L148.378 10.83L148.267 10.5321C147.704 9.10282 147.094 8.55345 146.548 8.47547V8.47449C145.946 8.41135 145.448 8.32278 145.144 8.17078L145.126 8.16199L145.109 8.15125C144.677 7.89228 144.54 7.42895 144.54 6.97645C144.54 6.55 144.713 6.17189 145.08 5.92664C145.412 5.70588 145.844 5.63273 146.3 5.6327C146.584 5.6327 147.208 5.67791 148.139 5.76258C149.066 5.84685 149.893 5.88855 150.62 5.88856C151.414 5.88856 152.306 5.84696 153.297 5.76258C154.285 5.67853 154.891 5.63271 155.069 5.6327C155.481 5.6327 155.885 5.71847 156.192 5.9784C156.514 6.252 156.637 6.63926 156.637 7.0409C156.637 7.2642 156.589 7.48762 156.468 7.68836C156.35 7.88511 156.18 8.02824 155.985 8.12879L155.986 8.12977C155.985 8.13039 155.983 8.13012 155.982 8.13074C155.978 8.13287 155.974 8.13647 155.97 8.13856L155.969 8.13758C155.634 8.31417 155.112 8.41359 154.488 8.47645C154.275 8.50398 154.102 8.59218 153.951 8.75184C153.834 8.8966 153.757 9.10137 153.757 9.40809C153.757 9.76527 153.912 10.483 154.277 11.62C154.637 12.7432 155.05 13.9734 155.517 15.3104L156.111 16.9315C156.26 17.3485 156.363 17.6479 156.419 17.827C156.605 18.4025 156.767 18.8514 156.902 19.1796C157.066 18.7851 157.276 18.2266 157.529 17.497L157.535 17.4804L157.542 17.4628C157.6 17.3276 157.797 16.8103 158.141 15.8866L158.145 15.8768C158.507 14.9614 158.836 14.1098 159.134 13.3231C159.428 12.5457 159.702 11.7358 159.954 10.8934C160.211 10.0147 160.317 9.47441 160.317 9.21668C160.317 8.91816 160.233 8.74667 160.116 8.63465C159.988 8.51248 159.755 8.3988 159.346 8.35145C158.88 8.34663 158.444 8.26247 158.11 8.02625C157.733 7.7597 157.565 7.35792 157.565 6.91199C157.565 6.54902 157.68 6.19311 157.983 5.94227C158.267 5.7067 158.638 5.6327 159.005 5.6327C159.277 5.63273 159.767 5.67983 160.445 5.76453C161.124 5.8495 161.599 5.88856 161.885 5.88856C162.438 5.88855 163.134 5.84694 163.978 5.76258H163.98C164.846 5.67812 165.428 5.63275 165.693 5.6327C166.046 5.6327 166.406 5.70985 166.681 5.95399C166.967 6.20828 167.07 6.56057 167.07 6.91199C167.07 7.14698 167.025 7.37819 166.919 7.58973L166.91 7.60731L166.9 7.62391C166.834 7.73377 166.776 7.82675 166.727 7.90028L166.7 7.94227L166.663 7.9784C166.558 8.08411 166.425 8.13671 166.356 8.16199C166.268 8.19388 166.167 8.22031 166.06 8.24403C165.878 8.28435 165.695 8.3202 165.565 8.3202C165.561 8.32035 165.531 8.32176 165.457 8.32703C165.391 8.33176 165.302 8.33818 165.189 8.34754C164.295 8.502 163.488 9.22587 162.838 10.7889L159.293 20.3388L159.292 20.3378C159.218 20.5565 159.084 20.8813 158.896 21.2987C158.708 21.7152 158.566 22.0722 158.466 22.371L158.463 22.3807C158.413 22.5206 158.379 22.6326 158.358 22.7177C158.347 22.7597 158.341 22.7923 158.337 22.8163C158.334 22.8357 158.333 22.8459 158.333 22.8485C158.333 22.9152 158.355 23.0562 158.435 23.2948C158.519 23.5471 158.624 23.8538 158.751 24.2147C158.877 24.5709 158.975 24.874 159.043 25.121L162.787 36.5136L162.795 36.5389C162.95 37.1088 163.086 37.5583 163.203 37.8925C163.357 37.4939 163.545 36.9342 163.763 36.2059L163.764 36.202L171.092 12.5526C171.537 11.0888 171.742 10.0523 171.742 9.40809C171.741 8.95021 171.614 8.83282 171.551 8.79676C171.333 8.67227 170.969 8.55602 170.418 8.47449H170.413C170.008 8.41049 169.734 8.36829 169.589 8.34754L169.554 8.34266L169.521 8.33289C169.302 8.27048 169.082 8.1551 168.866 8.01063L168.854 8.00281L168.842 7.99403C168.528 7.75878 168.381 7.41796 168.381 7.0409C168.381 6.65864 168.481 6.27836 168.77 5.99989C169.055 5.7248 169.438 5.6327 169.822 5.6327C170.171 5.63273 170.77 5.67858 171.599 5.76356L171.6 5.76258C172.445 5.8471 173.12 5.88855 173.629 5.88856C174.005 5.88856 174.559 5.8482 175.299 5.76356H175.301C176.07 5.67808 176.65 5.6327 177.022 5.6327Z" fill="var(--fill-0, black)" stroke="var(--stroke-0, black)" stroke-width="1.02404"/>
<path id="Vector_22" d="M109.992 16.5772C112.795 16.5772 115.084 17.5826 116.81 19.6016H116.811C118.553 21.6149 119.4 24.2619 119.4 27.4893C119.4 28.3368 119.384 29.0239 119.351 29.546C119.32 30.0433 119.27 30.4565 119.175 30.7091C119.05 31.0432 118.789 31.2609 118.482 31.3868C118.187 31.5076 117.833 31.5538 117.448 31.5538H104.072C103.763 31.5538 103.524 31.5764 103.347 31.6143C103.166 31.6533 103.082 31.7008 103.051 31.7257C103.001 31.7673 102.887 31.9272 102.887 32.4171C102.887 36.2342 103.653 39.263 105.139 41.544L105.424 41.9542C106.878 43.9398 108.713 44.8975 110.952 44.8975C112.401 44.8975 113.579 44.6147 114.512 44.0782C115.44 43.5444 116.158 42.7409 116.663 41.6436L116.667 41.6368L116.67 41.629C116.771 41.4278 116.872 41.2038 116.975 40.9571L116.982 40.9405L116.99 40.9249C117.116 40.6722 117.207 40.4796 117.265 40.3438C117.337 40.1757 117.421 40.009 117.515 39.8438C117.607 39.6838 117.709 39.5293 117.822 39.4161L117.847 39.3897L117.876 39.3682C118.028 39.2546 118.219 39.17 118.44 39.17L118.555 39.1768C118.671 39.1907 118.788 39.2267 118.898 39.2921C119.043 39.3787 119.15 39.5005 119.223 39.6319C119.361 39.8791 119.4 40.1841 119.4 40.4815C119.4 40.8705 119.299 41.3365 119.126 41.8585C118.952 42.3872 118.694 43.0052 118.358 43.71L118.344 43.7374C117.51 45.2476 116.336 46.4547 114.831 47.3536L114.829 47.3546C113.341 48.2334 111.726 48.6739 109.992 48.6739C106.154 48.6739 103.068 47.2337 100.79 44.3516L100.789 44.3497C98.5253 41.465 97.4156 37.7395 97.4155 33.2178C97.4155 30.5068 97.7732 28.0611 98.4976 25.8878C99.1732 23.8609 100.068 22.1907 101.196 20.8975L101.425 20.6436C102.636 19.3232 103.967 18.3117 105.419 17.6192L105.421 17.6173C106.895 16.9253 108.42 16.5772 109.992 16.5772ZM109.511 19.1046C107.697 19.1047 106.179 19.9301 104.938 21.67L104.939 21.671C103.704 23.4322 103.08 25.5033 103.08 27.9053V27.9698C103.08 28.4327 103.199 28.5647 103.26 28.6055C103.331 28.6347 103.512 28.6816 103.865 28.7159C104.226 28.751 104.709 28.7696 105.32 28.7696C106.309 28.7696 107.546 28.7276 109.033 28.6427L109.896 28.5821C110.717 28.5178 111.413 28.4411 111.985 28.3516C112.742 28.2332 113.241 28.0979 113.525 27.9649C114.065 27.6517 114.44 26.9368 114.44 25.5372C114.44 23.5688 113.979 22.0219 113.102 20.8526L113.096 20.8448C112.262 19.6884 111.09 19.1046 109.511 19.1046Z" fill="var(--fill-0, black)" stroke="var(--stroke-0, black)" stroke-width="1.02404"/>
<path id="Vector_23" d="M93.2644 0.518177C93.3805 0.531863 93.5037 0.569319 93.6189 0.646106C93.7537 0.735988 93.841 0.859127 93.8962 0.987903C93.9683 1.13221 94.0013 1.30112 94.0192 1.45079C94.0386 1.61178 94.0466 1.8023 94.0466 2.01622V42.4977C94.0466 43.3633 94.0956 43.9745 94.1794 44.3561C94.2034 44.4651 94.2284 44.5419 94.2487 44.5943C94.4617 44.5547 94.6812 44.4179 94.9069 44.0934L94.9108 44.0875L94.9157 44.0817C95.2613 43.6141 95.5424 43.151 95.7614 42.693C95.8872 42.4301 96.0223 42.1989 96.1726 42.026C96.3118 41.8659 96.5427 41.6657 96.863 41.6656L97.0085 41.6764C97.1524 41.6987 97.2897 41.7558 97.4118 41.8492C97.5678 41.9685 97.6718 42.1261 97.7409 42.2848C97.8742 42.5907 97.9187 42.988 97.9187 43.4254C97.9187 44.1807 97.8589 44.7998 97.6999 45.2184L97.7009 45.2193C97.547 45.6809 97.2075 46.0511 96.7634 46.3473L96.737 46.3649L96.6745 46.3961C96.6615 46.4026 96.6693 46.3992 96.656 46.4059C96.6242 46.4218 96.6692 46.3988 96.6374 46.4147L96.5964 46.4352C96.5909 46.4379 96.5598 46.454 96.5525 46.4576L96.5407 46.4635C96.5392 46.4643 96.5381 46.4643 96.5378 46.4645C96.5364 46.4652 96.5361 46.4658 96.5349 46.4664C96.5342 46.4668 96.5331 46.4668 96.5319 46.4674C96.5233 46.4717 96.5371 46.4653 96.529 46.4693C96.529 46.4694 96.5077 46.4795 96.5046 46.4811C96.5007 46.483 96.505 46.4813 96.5017 46.483L96.4919 46.4879C96.4829 46.4924 96.4881 46.4893 96.4792 46.4938C96.4512 46.5078 96.4942 46.4868 96.4665 46.5006C96.4568 46.5055 96.4692 46.4988 96.4597 46.5035C96.4575 46.5046 96.455 46.5063 96.4528 46.5074L96.3982 46.5348C96.3833 46.5422 96.3849 46.5409 96.3698 46.5484C96.3407 46.563 96.369 46.5484 96.3396 46.5631C96.2899 46.5879 96.267 46.6004 96.2126 46.6276C96.2034 46.6321 96.2057 46.6305 96.196 46.6354C96.1821 46.6423 96.1933 46.6372 96.1794 46.6442L96.1442 46.6617C96.1381 46.6648 96.1417 46.6625 96.1355 46.6656C96.1265 46.6701 96.1356 46.6661 96.1267 46.6705C96.1243 46.6717 96.1242 46.6713 96.1218 46.6725L96.0905 46.6881C96.0861 46.6903 96.0765 46.6956 96.072 46.6979C96.018 46.7249 95.9754 46.7457 95.9167 46.775L95.7702 46.8483C95.7536 46.8566 95.7645 46.8516 95.7478 46.86L95.74 46.8639L95.7312 46.8678C95.2624 47.0809 94.89 47.2511 94.614 47.3785L94.6013 47.3844L94.5896 47.3893L94.1892 47.5494C94.0293 47.6134 93.8427 47.6878 93.6296 47.7731C93.2133 47.9396 92.883 48.0669 92.6423 48.1549C92.3902 48.2686 92.1191 48.3696 91.8298 48.4586C91.5405 48.5476 91.2671 48.61 91.0388 48.61C90.6233 48.6099 90.2509 48.4531 89.988 48.1178C89.7486 47.8124 89.6396 47.4084 89.6023 46.9742C89.5806 46.8572 89.5597 46.7126 89.5407 46.5445C89.4566 46.0081 89.3758 45.6142 89.2995 45.3522C89.2984 45.3482 89.2968 45.3443 89.2956 45.3404C89.1351 45.4829 88.9157 45.6833 88.6364 45.944C88.3105 46.2481 87.9921 46.5212 87.6833 46.7643C86.1422 48.0333 84.3745 48.6734 82.3982 48.6734C78.7973 48.6733 75.9803 47.1948 74.0056 44.2555L74.0036 44.2526C72.0747 41.3479 71.1345 37.5372 71.1345 32.8649C71.1345 30.0283 71.6473 27.369 72.6775 24.8922L72.6794 24.8883C73.7324 22.4096 75.2096 20.4068 77.1179 18.8971C79.0375 17.3569 81.1758 16.5768 83.5183 16.5768C84.9489 16.5768 86.4118 16.9475 87.9021 17.6686L88.2009 17.817L88.2107 17.8229L88.2204 17.8277C88.3826 17.9204 88.5638 18.0342 88.7624 18.1666C88.8618 18.2328 88.9499 18.2866 89.0232 18.3336V7.04064C89.0232 6.43082 88.8809 6.16261 88.7536 6.05333C88.5749 5.90014 88.1305 5.72143 87.2839 5.59435C86.7669 5.53197 86.3583 5.46394 86.1228 5.3756L86.0974 5.36583L86.0739 5.35411C85.9085 5.27138 85.764 5.14614 85.6657 4.97423C85.5695 4.80571 85.5349 4.62239 85.5349 4.44786C85.535 3.70633 86.1529 3.30522 86.8132 3.09825L87.5339 2.85314C89.1715 2.28642 90.5071 1.7478 91.5456 1.2379C91.7038 1.15882 91.8513 1.08033 91.988 1.00255C92.1366 0.90978 92.2654 0.8354 92.3669 0.781848C92.4732 0.706858 92.5911 0.646144 92.7204 0.607044C92.8445 0.558493 92.9958 0.512317 93.1511 0.512317L93.2644 0.518177ZM83.7751 19.1051C82.9816 19.1051 82.1842 19.3303 81.3776 19.8024L81.3737 19.8043C80.5914 20.2542 79.8164 20.9503 79.0564 21.9156L79.0573 21.9166C78.3482 22.8229 77.7531 24.1362 77.2937 25.8902C76.8377 27.6311 76.6062 29.6345 76.6062 31.9049V31.9693C76.6062 36.4158 77.2438 39.7051 78.4616 41.8971C79.0664 42.9857 79.8037 43.7775 80.6638 44.2994C81.5228 44.8206 82.5328 45.0895 83.7107 45.0895C85.4151 45.0895 86.701 44.6544 87.6286 43.8404L87.6355 43.8346L87.6433 43.8287C88.5615 43.0791 89.0232 42.0873 89.0232 40.8014V25.4088C89.0231 23.3269 88.5381 21.8248 87.6482 20.8209L87.6403 20.8121C86.6788 19.6775 85.4077 19.1052 83.7751 19.1051Z" fill="var(--fill-0, black)" stroke="var(--stroke-0, black)" stroke-width="1.02404"/>
<path id="Vector_24" d="M60.342 16.5772C62.6092 16.5773 64.3183 16.983 65.2473 17.9747C66.0408 18.7681 66.3576 20.1476 66.3576 21.921V41.6016C66.3576 42.5889 66.515 43.2429 66.76 43.6348C66.9798 43.9865 67.2897 44.1622 67.7658 44.1622C68.1745 44.1622 68.4908 44.0669 68.7395 43.9024C68.9888 43.7374 69.2069 43.4785 69.3782 43.0909C69.5617 42.6287 69.743 42.2509 69.926 41.9796C70.0185 41.8425 70.1247 41.7115 70.2492 41.6104C70.3734 41.5097 70.5516 41.4103 70.7737 41.4102L70.9026 41.418C71.0312 41.4348 71.1582 41.478 71.2756 41.5538C71.4296 41.6533 71.5389 41.79 71.6135 41.9346C71.7551 42.209 71.7981 42.556 71.7981 42.9141C71.798 43.9539 71.1861 45.1177 70.1448 46.376L70.1418 46.38C69.0213 47.7106 67.5769 48.3858 65.8459 48.3858C65.2688 48.3858 64.7332 48.2777 64.2502 48.0489C63.8224 47.8462 63.4643 47.629 63.1994 47.3907C62.9172 47.1367 62.6691 46.7617 62.4436 46.3106L62.4367 46.2979L62.4309 46.2833L62.0471 45.3878L62.0305 45.3497L62.0207 45.3096C61.9802 45.1477 61.898 44.841 61.7737 44.3848C61.6831 44.149 61.6029 43.9869 61.5373 43.8829C61.4816 43.925 61.412 43.9814 61.3293 44.0577L61.3274 44.0596C61.0798 44.2866 60.7236 44.6322 60.2561 45.0997L60.2473 45.1085C59.7664 45.5675 59.2934 45.9748 58.8283 46.3292C56.9297 47.8877 54.7723 48.6739 52.3733 48.6739C50.7901 48.6739 49.4493 48.1203 48.3879 47.0118C47.3135 45.8896 46.805 44.3628 46.8049 42.4981C46.8049 40.747 47.4089 39.2053 48.6028 37.8966C49.7545 36.6341 51.7053 35.081 54.4221 33.2413C55.0668 32.7902 55.9538 32.1919 57.0813 31.4473C58.2343 30.6787 58.9969 30.1455 59.384 29.8399L59.3987 29.8282L59.4133 29.8184C60.2814 29.2255 60.7701 28.7833 60.968 28.4893C61.1467 28.2023 61.2697 27.7209 61.2698 26.9776V23.3614C61.2698 21.6489 61.0424 20.5467 60.6741 19.9503L60.6682 19.9405C60.3644 19.4241 59.7933 19.1046 58.7737 19.1046C57.206 19.1046 56.0315 19.5948 55.1858 20.5343C54.3154 21.5035 53.5765 22.9414 52.9914 24.8848L52.9875 24.8995L52.9826 24.9132C52.5611 26.0668 52.0196 26.9669 51.3303 27.5577L51.3235 27.5645L51.3157 27.5704C50.4134 28.2875 49.4512 28.6728 48.4377 28.6729C47.9111 28.6729 47.392 28.5764 47.051 28.2354L47.0412 28.2257L47.0325 28.2159C46.7107 27.8583 46.6135 27.3341 46.6135 26.7852C46.6135 25.7649 46.988 24.6704 47.677 23.5147L47.6809 23.5089C48.3925 22.3526 49.322 21.2601 50.4621 20.2296L50.466 20.2257C51.6506 19.1753 53.1247 18.3146 54.8762 17.6358C56.6411 16.9305 58.4643 16.5772 60.342 16.5772ZM61.2326 31.6593C61.1613 31.6838 61.0733 31.719 60.968 31.7686C60.7133 31.8888 60.3844 32.0763 59.9778 32.337L59.9729 32.3399C58.2844 33.3952 56.8917 34.4226 55.7893 35.421L55.7737 35.4346C53.3852 37.4285 52.2776 39.4418 52.2776 41.4737V41.5382C52.2776 42.6607 52.5805 43.4533 53.1194 43.9923C53.6772 44.55 54.3757 44.834 55.2532 44.8341C56.5623 44.8341 57.989 44.1612 59.5393 42.6729L59.5481 42.6641C60.2678 42.0061 60.7112 41.4235 60.927 40.92C61.1459 40.4092 61.2698 39.7061 61.2698 38.7852V32.1612C61.2697 31.9301 61.253 31.7676 61.2326 31.6593Z" fill="var(--fill-0, black)" stroke="var(--stroke-0, black)" stroke-width="1.02404"/>
<path id="Vector_25" d="M35.3817 16.588C35.6948 16.6368 35.9169 16.847 36.0507 17.0909C36.1559 17.2828 36.2218 17.5161 36.2626 17.7706L36.2958 18.0313V18.0362C36.3407 18.5525 36.3622 19.5348 36.3622 20.961C36.3622 21.2509 36.3668 21.4984 36.3768 21.7052C36.5003 21.5026 36.6471 21.2572 36.8124 20.9649C37.0949 20.4651 37.3711 20.0326 37.6415 19.671C39.0431 17.7131 40.6953 16.6407 42.6024 16.6407C43.8217 16.6408 44.8215 17.0674 45.5301 17.9532H45.5292C46.2434 18.7976 46.5702 19.9279 46.5702 21.2813C46.5702 22.3894 46.3436 23.3324 45.8407 24.0635L45.8417 24.0645C45.3254 24.8254 44.534 25.1856 43.5624 25.1856C42.7792 25.1856 42.1019 24.9587 41.6034 24.4464C41.1145 23.9437 40.8612 23.2308 40.7801 22.3858V22.378L40.7792 22.3702C40.7378 21.7295 40.644 21.31 40.5301 21.0665C40.4752 20.949 40.4278 20.8986 40.4042 20.88C40.3886 20.8678 40.3803 20.8653 40.3622 20.8653C39.4821 20.8653 38.5735 21.6285 37.7694 23.7657L37.7655 23.7755L37.7616 23.7843C37.0823 25.3898 36.746 26.9974 36.746 28.6094V41.6661C36.746 42.4977 36.7777 43.1782 36.8387 43.712C36.9002 44.2495 36.9877 44.6014 37.08 44.8048L37.1444 44.9093C37.3343 45.1559 37.8022 45.4133 38.7958 45.5421L38.8007 45.543C39.5648 45.6492 40.1589 45.7718 40.5419 45.9229C40.7471 45.99 40.95 46.0899 41.1083 46.2481C41.2865 46.4264 41.3866 46.6568 41.3866 46.9141C41.3866 47.1081 41.3529 47.3115 41.2548 47.4971C41.159 47.678 41.0128 47.8141 40.8339 47.9034L40.8348 47.9053C40.828 47.9091 40.8203 47.9115 40.8133 47.9151C40.8067 47.9182 40.8006 47.9229 40.7938 47.9259L40.7928 47.9239C40.6226 48.009 40.4227 48.0575 40.2245 48.085C40.001 48.1161 39.7357 48.1299 39.4344 48.13H39.413L39.3915 48.128L37.8553 48.0001C36.8499 47.9163 35.6271 47.8741 34.1854 47.8741C33.0674 47.8741 32.0483 47.9154 31.1278 47.9991L31.1288 48.0001C30.6701 48.0427 30.317 48.0743 30.0702 48.0958C29.8416 48.1157 29.6701 48.13 29.6092 48.13C29.1854 48.1299 28.7875 48.0753 28.4784 47.9083C28.3161 47.8205 28.1691 47.6964 28.0643 47.5264C27.9587 47.3552 27.9139 47.1661 27.9139 46.9776C27.914 46.5572 28.05 46.0885 28.5165 45.88C28.8061 45.7352 29.2486 45.6299 29.785 45.544L29.8036 45.5411L29.8221 45.5401C30.7981 45.4571 31.182 45.1975 31.3046 44.9727L31.3085 44.9649L31.3133 44.9571C31.3989 44.8121 31.4918 44.5236 31.5585 44.0362C31.6235 43.5611 31.6581 42.9438 31.6581 42.1778V25.4093C31.6581 24.7786 31.6133 24.2821 31.5331 23.9093C31.4509 23.5275 31.3422 23.3261 31.2538 23.2325L31.243 23.2218L31.2342 23.211C31.0485 22.9905 30.5843 22.7852 29.6092 22.7852C29.2843 22.7852 28.9536 22.7367 28.6893 22.5704C28.3852 22.3789 28.2334 22.0728 28.2333 21.7296C28.2333 21.3296 28.4101 20.99 28.701 20.7305C28.9771 20.4844 29.3535 20.3107 29.7841 20.1827L29.8016 20.1768C31.1113 19.8395 32.2548 19.1567 33.2372 18.1143L33.2421 18.1085L33.2479 18.1026C33.3665 17.984 33.5083 17.8318 33.6747 17.6446C33.8452 17.4528 33.9499 17.3284 33.9999 17.2618L34.0223 17.2325L34.0477 17.2071C34.148 17.1068 34.2583 17.0087 34.3778 16.9132C34.4849 16.8274 34.6172 16.735 34.7587 16.6807C34.9135 16.6097 35.0772 16.5772 35.2421 16.5772L35.3817 16.588Z" fill="var(--fill-0, black)" stroke="var(--stroke-0, black)" stroke-width="1.02404"/>
<path id="Vector_26" d="M30.1451 3.87261C30.3641 3.87262 30.5851 3.9238 30.7809 4.05425C30.9662 4.17779 31.0937 4.35017 31.1783 4.5396H31.1793C31.1824 4.54583 31.1841 4.5528 31.1871 4.55913C31.1889 4.56339 31.1922 4.56756 31.194 4.57183H31.193C31.3678 4.94576 31.4254 5.50005 31.4254 6.14409C31.4254 6.45336 31.4137 6.85708 31.3922 7.35113C31.3709 7.84172 31.361 8.17256 31.361 8.3521V8.36773C31.2965 10.4935 31.1459 12.6303 30.9098 14.7769C30.8545 15.513 30.7403 16.1227 30.5387 16.565C30.3322 17.018 29.9714 17.4087 29.4088 17.4087C29.1548 17.4087 28.9107 17.3333 28.7047 17.1685L28.6608 17.1334L28.6256 17.0884C28.4814 16.9082 28.3724 16.6549 28.2828 16.3863C28.1976 16.1305 28.1232 15.9063 28.0592 15.7144L28.0514 15.69L28.0455 15.6636C28.0016 15.4659 27.9366 15.1521 27.8512 14.7251C27.8085 14.5118 27.7709 14.3246 27.7389 14.1646C27.7087 14.0136 27.6834 13.8863 27.6627 13.7828C27.4529 12.9018 27.2366 12.2066 27.0172 11.688L27.0113 11.6724C26.8167 11.1662 26.5191 10.6282 26.1119 10.0582L26.107 10.0513C25.7386 9.51706 25.2551 9.13343 24.6451 8.89312L24.6324 8.88823C24.0081 8.62343 23.2271 8.48006 22.2731 8.48003H19.777C19.4188 8.48003 19.1522 8.50115 18.9664 8.5357C18.8329 8.56053 18.7741 8.58572 18.7574 8.59331C18.7477 8.60919 18.7275 8.65118 18.7067 8.73687C18.6769 8.85958 18.6568 9.03758 18.6568 9.28081V42.1773C18.6568 43.4357 18.8072 44.2414 19.0397 44.6793L19.1207 44.8052C19.3005 45.046 19.5873 45.226 20.0397 45.313L20.2799 45.3492L20.2985 45.3511L20.316 45.3541C20.5374 45.3943 20.8143 45.4353 21.1481 45.4771C21.4951 45.5179 21.78 45.5608 21.9938 45.606C22.2291 45.6309 22.4629 45.6788 22.6949 45.7476C22.9416 45.7972 23.211 45.8944 23.402 46.1041H23.4029C23.6044 46.3056 23.7125 46.5636 23.7125 46.8501C23.7125 47.0742 23.6747 47.3058 23.5611 47.5123C23.4435 47.7261 23.2618 47.8793 23.0377 47.9644L23.0387 47.9654C23.0375 47.9659 23.036 47.9659 23.0348 47.9664C23.0311 47.9677 23.0277 47.9699 23.024 47.9712L23.0231 47.9703C22.7154 48.0891 22.2977 48.1294 21.8248 48.1294C21.6525 48.1294 20.933 48.0849 19.7096 48.0005C18.4848 47.9161 17.2165 47.8736 15.9049 47.8736C14.3992 47.8736 13.0783 47.9154 11.942 47.9996L11.943 48.0005C10.8262 48.0848 10.1488 48.1294 9.95275 48.1294C9.50085 48.1294 9.07499 48.0633 8.74767 47.8619C8.37983 47.6354 8.1921 47.2733 8.192 46.8501C8.192 46.6013 8.25614 46.3565 8.40783 46.1441C8.55159 45.9429 8.74997 45.8058 8.9674 45.7144V45.7134C9.19601 45.6067 9.5096 45.535 9.86681 45.48C10.0508 45.4517 10.257 45.426 10.485 45.4039L11.234 45.3462C12.2223 45.2842 12.63 45.0236 12.7711 44.774C12.8625 44.6123 12.9549 44.317 13.0211 43.8433C13.086 43.3792 13.1207 42.7827 13.1207 42.0494V9.08843C13.1207 8.87873 13.0861 8.7634 13.0572 8.70757C13.0364 8.66741 13.0196 8.65567 12.9908 8.64605L12.9703 8.63921L12.9508 8.6314C12.8891 8.60495 12.6863 8.5593 12.2652 8.52691C11.8679 8.49634 11.3333 8.48004 10.6568 8.48003C8.93139 8.48003 7.63492 8.91407 6.70861 9.72515L6.70958 9.72613C5.75543 10.581 4.88564 11.847 4.11486 13.5552L4.11193 13.563H4.11095C3.95151 13.9019 3.74517 14.4264 3.49083 15.147C3.2387 15.8614 3.00212 16.4127 2.7799 16.7662C2.57705 17.1211 2.25127 17.4731 1.76036 17.4732C1.38042 17.4732 0.983283 17.35 0.749622 16.9761L0.742786 16.9654L0.736927 16.9537C0.638991 16.7774 0.587337 16.5638 0.557239 16.3531C0.525966 16.1341 0.512317 15.8759 0.512317 15.5845C0.512358 15.4406 0.556248 15.1731 0.616809 14.8501C0.679934 14.5135 0.719632 14.2615 0.73888 14.0884L0.739856 14.0796C1.1249 11.0635 1.53268 8.55165 1.96349 6.54839L1.96642 6.53667C2.15006 5.76976 2.338 5.16243 2.53575 4.73687C2.63384 4.52584 2.74724 4.33003 2.88439 4.18023C3.01912 4.03311 3.23203 3.87261 3.52013 3.87261L3.65197 3.87847C4.27778 3.93918 4.69164 4.43185 4.95763 5.02593C4.98912 5.07609 5.00885 5.1203 5.01915 5.14605C5.02877 5.17009 5.03478 5.19576 5.04259 5.22027C5.06555 5.25664 5.08665 5.2931 5.10607 5.32866C5.1446 5.38592 5.16785 5.43771 5.17931 5.46636C5.18881 5.49011 5.19404 5.51539 5.20177 5.5396C5.21013 5.55284 5.2192 5.56549 5.22716 5.57866C5.26384 5.61192 5.29624 5.64613 5.32384 5.68023C5.35523 5.70366 5.38518 5.72875 5.41466 5.75445C5.44097 5.76936 5.46804 5.78457 5.49474 5.80132C5.54103 5.81393 5.5853 5.82699 5.62755 5.84038L5.62853 5.83941C5.63192 5.84025 5.62695 5.8395 5.63048 5.84038H5.63243L5.63341 5.84136H5.63634L5.65197 5.84527C5.6541 5.8458 5.65862 5.84669 5.66075 5.84722L5.66173 5.8482H5.66466V5.84917C5.66644 5.84962 5.66484 5.84873 5.66661 5.84917L5.66857 5.85015H5.6715L5.67247 5.85113L5.692 5.85601C5.70622 5.85956 5.71007 5.86028 5.72423 5.86382C5.7295 5.86514 5.72317 5.86355 5.72814 5.8648C5.72978 5.86521 5.72889 5.8645 5.73009 5.8648C5.73176 5.86521 5.73073 5.86545 5.73204 5.86577L5.73595 5.86675H5.7379C5.73968 5.86719 5.73808 5.86728 5.73986 5.86773H5.74083L5.75646 5.87163C5.76466 5.87368 5.78052 5.8774 5.78868 5.87945C5.83109 5.89005 5.77796 5.87676 5.81993 5.88726L5.82286 5.88823H26.2731C27.0438 5.88822 27.6098 5.80226 27.9977 5.65679C28.3774 5.51429 28.5432 5.33378 28.6129 5.15679L28.6207 5.1353L28.6315 5.11577C28.6423 5.09413 28.6669 5.03685 28.7096 4.93023L28.7252 4.89214L28.7457 4.85698C28.8102 4.74948 28.8436 4.69044 28.8551 4.66753L28.8922 4.59331L28.9508 4.53472C28.9681 4.5174 29.0045 4.47521 29.0631 4.39702C29.1216 4.31896 29.219 4.20249 29.3492 4.12066V4.1187C29.4554 4.04791 29.5704 3.99826 29.6891 3.96441C29.8359 3.90187 29.9898 3.87261 30.1451 3.87261Z" fill="var(--fill-0, black)" stroke="var(--stroke-0, black)" stroke-width="1.02404"/>
</g>
</svg>
